<mxfile host="Electron" modified="2023-04-27T11:33:28.940Z" agent="Mozilla/5.0 (X11; Linux x86_64) AppleWebKit/537.36 (KHTML, like Gecko) draw.io/21.2.1 Chrome/112.0.5615.87 Electron/24.1.2 Safari/537.36" etag="IdlEtkQTJSLkbZhgpq35" version="21.2.1" type="device" pages="2">
  <diagram id="aN4Brpv_6fbu-leNG-dG" name="infological">
    <mxGraphModel dx="3434" dy="838" grid="0" gridSize="10" guides="1" tooltips="1" connect="1" arrows="1" fold="1" page="0" pageScale="1" pageWidth="1100" pageHeight="850" math="0" shadow="0">
      <root>
        <mxCell id="0" />
        <mxCell id="1" parent="0" />
        <mxCell id="SPdOxryq6CvYOA-38Vv3-304" value="location" style="shape=table;startSize=30;container=1;collapsible=1;childLayout=tableLayout;fixedRows=1;rowLines=0;fontStyle=1;align=center;resizeLast=1;" parent="1" vertex="1">
          <mxGeometry x="-1793" y="522" width="112" height="190" as="geometry" />
        </mxCell>
        <mxCell id="SPdOxryq6CvYOA-38Vv3-305" value="" style="shape=tableRow;horizontal=0;startSize=0;swimlaneHead=0;swimlaneBody=0;fillColor=none;collapsible=0;dropTarget=0;points=[[0,0.5],[1,0.5]];portConstraint=eastwest;top=0;left=0;right=0;bottom=1;" parent="SPdOxryq6CvYOA-38Vv3-304" vertex="1">
          <mxGeometry y="30" width="112" height="30" as="geometry" />
        </mxCell>
        <mxCell id="SPdOxryq6CvYOA-38Vv3-306" value="PK" style="shape=partialRectangle;overflow=hidden;connectable=0;fillColor=none;top=0;left=0;bottom=0;right=0;fontStyle=1;" parent="SPdOxryq6CvYOA-38Vv3-305" vertex="1">
          <mxGeometry width="30" height="30" as="geometry">
            <mxRectangle width="30" height="30" as="alternateBounds" />
          </mxGeometry>
        </mxCell>
        <mxCell id="SPdOxryq6CvYOA-38Vv3-307" value="id" style="shape=partialRectangle;overflow=hidden;connectable=0;fillColor=none;align=left;top=0;left=0;bottom=0;right=0;spacingLeft=6;fontStyle=5;" parent="SPdOxryq6CvYOA-38Vv3-305" vertex="1">
          <mxGeometry x="30" width="82" height="30" as="geometry">
            <mxRectangle width="82" height="30" as="alternateBounds" />
          </mxGeometry>
        </mxCell>
        <mxCell id="SPdOxryq6CvYOA-38Vv3-308" value="" style="shape=tableRow;horizontal=0;startSize=0;swimlaneHead=0;swimlaneBody=0;fillColor=none;collapsible=0;dropTarget=0;points=[[0,0.5],[1,0.5]];portConstraint=eastwest;top=0;left=0;right=0;bottom=0;" parent="SPdOxryq6CvYOA-38Vv3-304" vertex="1">
          <mxGeometry y="60" width="112" height="30" as="geometry" />
        </mxCell>
        <mxCell id="SPdOxryq6CvYOA-38Vv3-309" value="" style="shape=partialRectangle;overflow=hidden;connectable=0;fillColor=none;top=0;left=0;bottom=0;right=0;" parent="SPdOxryq6CvYOA-38Vv3-308" vertex="1">
          <mxGeometry width="30" height="30" as="geometry">
            <mxRectangle width="30" height="30" as="alternateBounds" />
          </mxGeometry>
        </mxCell>
        <mxCell id="SPdOxryq6CvYOA-38Vv3-310" value="description" style="shape=partialRectangle;overflow=hidden;connectable=0;fillColor=none;align=left;top=0;left=0;bottom=0;right=0;spacingLeft=6;" parent="SPdOxryq6CvYOA-38Vv3-308" vertex="1">
          <mxGeometry x="30" width="82" height="30" as="geometry">
            <mxRectangle width="82" height="30" as="alternateBounds" />
          </mxGeometry>
        </mxCell>
        <mxCell id="SPdOxryq6CvYOA-38Vv3-311" value="" style="shape=tableRow;horizontal=0;startSize=0;swimlaneHead=0;swimlaneBody=0;fillColor=none;collapsible=0;dropTarget=0;points=[[0,0.5],[1,0.5]];portConstraint=eastwest;top=0;left=0;right=0;bottom=0;" parent="SPdOxryq6CvYOA-38Vv3-304" vertex="1">
          <mxGeometry y="90" width="112" height="30" as="geometry" />
        </mxCell>
        <mxCell id="SPdOxryq6CvYOA-38Vv3-312" value="" style="shape=partialRectangle;overflow=hidden;connectable=0;fillColor=none;top=0;left=0;bottom=0;right=0;" parent="SPdOxryq6CvYOA-38Vv3-311" vertex="1">
          <mxGeometry width="30" height="30" as="geometry">
            <mxRectangle width="30" height="30" as="alternateBounds" />
          </mxGeometry>
        </mxCell>
        <mxCell id="SPdOxryq6CvYOA-38Vv3-313" value="x_coord" style="shape=partialRectangle;overflow=hidden;connectable=0;fillColor=none;align=left;top=0;left=0;bottom=0;right=0;spacingLeft=6;" parent="SPdOxryq6CvYOA-38Vv3-311" vertex="1">
          <mxGeometry x="30" width="82" height="30" as="geometry">
            <mxRectangle width="82" height="30" as="alternateBounds" />
          </mxGeometry>
        </mxCell>
        <mxCell id="SPdOxryq6CvYOA-38Vv3-314" value="" style="shape=tableRow;horizontal=0;startSize=0;swimlaneHead=0;swimlaneBody=0;fillColor=none;collapsible=0;dropTarget=0;points=[[0,0.5],[1,0.5]];portConstraint=eastwest;top=0;left=0;right=0;bottom=0;" parent="SPdOxryq6CvYOA-38Vv3-304" vertex="1">
          <mxGeometry y="120" width="112" height="30" as="geometry" />
        </mxCell>
        <mxCell id="SPdOxryq6CvYOA-38Vv3-315" value="" style="shape=partialRectangle;overflow=hidden;connectable=0;fillColor=none;top=0;left=0;bottom=0;right=0;" parent="SPdOxryq6CvYOA-38Vv3-314" vertex="1">
          <mxGeometry width="30" height="30" as="geometry">
            <mxRectangle width="30" height="30" as="alternateBounds" />
          </mxGeometry>
        </mxCell>
        <mxCell id="SPdOxryq6CvYOA-38Vv3-316" value="y_coord" style="shape=partialRectangle;overflow=hidden;connectable=0;fillColor=none;align=left;top=0;left=0;bottom=0;right=0;spacingLeft=6;" parent="SPdOxryq6CvYOA-38Vv3-314" vertex="1">
          <mxGeometry x="30" width="82" height="30" as="geometry">
            <mxRectangle width="82" height="30" as="alternateBounds" />
          </mxGeometry>
        </mxCell>
        <mxCell id="SPdOxryq6CvYOA-38Vv3-317" value="" style="shape=tableRow;horizontal=0;startSize=0;swimlaneHead=0;swimlaneBody=0;fillColor=none;collapsible=0;dropTarget=0;points=[[0,0.5],[1,0.5]];portConstraint=eastwest;top=0;left=0;right=0;bottom=0;" parent="SPdOxryq6CvYOA-38Vv3-304" vertex="1">
          <mxGeometry y="150" width="112" height="30" as="geometry" />
        </mxCell>
        <mxCell id="SPdOxryq6CvYOA-38Vv3-318" value="" style="shape=partialRectangle;overflow=hidden;connectable=0;fillColor=none;top=0;left=0;bottom=0;right=0;" parent="SPdOxryq6CvYOA-38Vv3-317" vertex="1">
          <mxGeometry width="30" height="30" as="geometry">
            <mxRectangle width="30" height="30" as="alternateBounds" />
          </mxGeometry>
        </mxCell>
        <mxCell id="SPdOxryq6CvYOA-38Vv3-319" value="z_coord" style="shape=partialRectangle;overflow=hidden;connectable=0;fillColor=none;align=left;top=0;left=0;bottom=0;right=0;spacingLeft=6;" parent="SPdOxryq6CvYOA-38Vv3-317" vertex="1">
          <mxGeometry x="30" width="82" height="30" as="geometry">
            <mxRectangle width="82" height="30" as="alternateBounds" />
          </mxGeometry>
        </mxCell>
        <mxCell id="SPdOxryq6CvYOA-38Vv3-320" value="person" style="shape=table;startSize=30;container=1;collapsible=1;childLayout=tableLayout;fixedRows=1;rowLines=0;fontStyle=1;align=center;resizeLast=1;" parent="1" vertex="1">
          <mxGeometry x="-1405" y="507" width="167.2678571428571" height="250" as="geometry" />
        </mxCell>
        <mxCell id="SPdOxryq6CvYOA-38Vv3-321" value="" style="shape=tableRow;horizontal=0;startSize=0;swimlaneHead=0;swimlaneBody=0;fillColor=none;collapsible=0;dropTarget=0;points=[[0,0.5],[1,0.5]];portConstraint=eastwest;top=0;left=0;right=0;bottom=1;" parent="SPdOxryq6CvYOA-38Vv3-320" vertex="1">
          <mxGeometry y="30" width="167.2678571428571" height="30" as="geometry" />
        </mxCell>
        <mxCell id="SPdOxryq6CvYOA-38Vv3-322" value="PK" style="shape=partialRectangle;overflow=hidden;connectable=0;fillColor=none;top=0;left=0;bottom=0;right=0;fontStyle=1;" parent="SPdOxryq6CvYOA-38Vv3-321" vertex="1">
          <mxGeometry width="30" height="30" as="geometry">
            <mxRectangle width="30" height="30" as="alternateBounds" />
          </mxGeometry>
        </mxCell>
        <mxCell id="SPdOxryq6CvYOA-38Vv3-323" value="id" style="shape=partialRectangle;overflow=hidden;connectable=0;fillColor=none;align=left;top=0;left=0;bottom=0;right=0;spacingLeft=6;fontStyle=5;" parent="SPdOxryq6CvYOA-38Vv3-321" vertex="1">
          <mxGeometry x="30" width="137.2678571428571" height="30" as="geometry">
            <mxRectangle width="137.2678571428571" height="30" as="alternateBounds" />
          </mxGeometry>
        </mxCell>
        <mxCell id="SPdOxryq6CvYOA-38Vv3-324" value="" style="shape=tableRow;horizontal=0;startSize=0;swimlaneHead=0;swimlaneBody=0;fillColor=none;collapsible=0;dropTarget=0;points=[[0,0.5],[1,0.5]];portConstraint=eastwest;top=0;left=0;right=0;bottom=0;" parent="SPdOxryq6CvYOA-38Vv3-320" vertex="1">
          <mxGeometry y="60" width="167.2678571428571" height="30" as="geometry" />
        </mxCell>
        <mxCell id="SPdOxryq6CvYOA-38Vv3-325" value="" style="shape=partialRectangle;overflow=hidden;connectable=0;fillColor=none;top=0;left=0;bottom=0;right=0;" parent="SPdOxryq6CvYOA-38Vv3-324" vertex="1">
          <mxGeometry width="30" height="30" as="geometry">
            <mxRectangle width="30" height="30" as="alternateBounds" />
          </mxGeometry>
        </mxCell>
        <mxCell id="SPdOxryq6CvYOA-38Vv3-326" value="name" style="shape=partialRectangle;overflow=hidden;connectable=0;fillColor=none;align=left;top=0;left=0;bottom=0;right=0;spacingLeft=6;" parent="SPdOxryq6CvYOA-38Vv3-324" vertex="1">
          <mxGeometry x="30" width="137.2678571428571" height="30" as="geometry">
            <mxRectangle width="137.2678571428571" height="30" as="alternateBounds" />
          </mxGeometry>
        </mxCell>
        <mxCell id="SPdOxryq6CvYOA-38Vv3-327" value="" style="shape=tableRow;horizontal=0;startSize=0;swimlaneHead=0;swimlaneBody=0;fillColor=none;collapsible=0;dropTarget=0;points=[[0,0.5],[1,0.5]];portConstraint=eastwest;top=0;left=0;right=0;bottom=0;" parent="SPdOxryq6CvYOA-38Vv3-320" vertex="1">
          <mxGeometry y="90" width="167.2678571428571" height="30" as="geometry" />
        </mxCell>
        <mxCell id="SPdOxryq6CvYOA-38Vv3-328" value="" style="shape=partialRectangle;overflow=hidden;connectable=0;fillColor=none;top=0;left=0;bottom=0;right=0;" parent="SPdOxryq6CvYOA-38Vv3-327" vertex="1">
          <mxGeometry width="30" height="30" as="geometry">
            <mxRectangle width="30" height="30" as="alternateBounds" />
          </mxGeometry>
        </mxCell>
        <mxCell id="SPdOxryq6CvYOA-38Vv3-329" value="age" style="shape=partialRectangle;overflow=hidden;connectable=0;fillColor=none;align=left;top=0;left=0;bottom=0;right=0;spacingLeft=6;" parent="SPdOxryq6CvYOA-38Vv3-327" vertex="1">
          <mxGeometry x="30" width="137.2678571428571" height="30" as="geometry">
            <mxRectangle width="137.2678571428571" height="30" as="alternateBounds" />
          </mxGeometry>
        </mxCell>
        <mxCell id="SPdOxryq6CvYOA-38Vv3-330" value="" style="shape=tableRow;horizontal=0;startSize=0;swimlaneHead=0;swimlaneBody=0;fillColor=none;collapsible=0;dropTarget=0;points=[[0,0.5],[1,0.5]];portConstraint=eastwest;top=0;left=0;right=0;bottom=0;" parent="SPdOxryq6CvYOA-38Vv3-320" vertex="1">
          <mxGeometry y="120" width="167.2678571428571" height="30" as="geometry" />
        </mxCell>
        <mxCell id="SPdOxryq6CvYOA-38Vv3-331" value="" style="shape=partialRectangle;overflow=hidden;connectable=0;fillColor=none;top=0;left=0;bottom=0;right=0;" parent="SPdOxryq6CvYOA-38Vv3-330" vertex="1">
          <mxGeometry width="30" height="30" as="geometry">
            <mxRectangle width="30" height="30" as="alternateBounds" />
          </mxGeometry>
        </mxCell>
        <mxCell id="SPdOxryq6CvYOA-38Vv3-332" value="gender" style="shape=partialRectangle;overflow=hidden;connectable=0;fillColor=none;align=left;top=0;left=0;bottom=0;right=0;spacingLeft=6;" parent="SPdOxryq6CvYOA-38Vv3-330" vertex="1">
          <mxGeometry x="30" width="137.2678571428571" height="30" as="geometry">
            <mxRectangle width="137.2678571428571" height="30" as="alternateBounds" />
          </mxGeometry>
        </mxCell>
        <mxCell id="SPdOxryq6CvYOA-38Vv3-333" value="" style="shape=tableRow;horizontal=0;startSize=0;swimlaneHead=0;swimlaneBody=0;fillColor=none;collapsible=0;dropTarget=0;points=[[0,0.5],[1,0.5]];portConstraint=eastwest;top=0;left=0;right=0;bottom=0;" parent="SPdOxryq6CvYOA-38Vv3-320" vertex="1">
          <mxGeometry y="150" width="167.2678571428571" height="30" as="geometry" />
        </mxCell>
        <mxCell id="SPdOxryq6CvYOA-38Vv3-334" value="FK" style="shape=partialRectangle;overflow=hidden;connectable=0;fillColor=none;top=0;left=0;bottom=0;right=0;" parent="SPdOxryq6CvYOA-38Vv3-333" vertex="1">
          <mxGeometry width="30" height="30" as="geometry">
            <mxRectangle width="30" height="30" as="alternateBounds" />
          </mxGeometry>
        </mxCell>
        <mxCell id="SPdOxryq6CvYOA-38Vv3-335" value="location_id" style="shape=partialRectangle;overflow=hidden;connectable=0;fillColor=none;align=left;top=0;left=0;bottom=0;right=0;spacingLeft=6;" parent="SPdOxryq6CvYOA-38Vv3-333" vertex="1">
          <mxGeometry x="30" width="137.2678571428571" height="30" as="geometry">
            <mxRectangle width="137.2678571428571" height="30" as="alternateBounds" />
          </mxGeometry>
        </mxCell>
        <mxCell id="SPdOxryq6CvYOA-38Vv3-336" value="" style="shape=tableRow;horizontal=0;startSize=0;swimlaneHead=0;swimlaneBody=0;fillColor=none;collapsible=0;dropTarget=0;points=[[0,0.5],[1,0.5]];portConstraint=eastwest;top=0;left=0;right=0;bottom=0;" parent="SPdOxryq6CvYOA-38Vv3-320" vertex="1">
          <mxGeometry y="180" width="167.2678571428571" height="30" as="geometry" />
        </mxCell>
        <mxCell id="SPdOxryq6CvYOA-38Vv3-337" value="" style="shape=partialRectangle;overflow=hidden;connectable=0;fillColor=none;top=0;left=0;bottom=0;right=0;" parent="SPdOxryq6CvYOA-38Vv3-336" vertex="1">
          <mxGeometry width="30" height="30" as="geometry">
            <mxRectangle width="30" height="30" as="alternateBounds" />
          </mxGeometry>
        </mxCell>
        <mxCell id="SPdOxryq6CvYOA-38Vv3-338" value="character" style="shape=partialRectangle;overflow=hidden;connectable=0;fillColor=none;align=left;top=0;left=0;bottom=0;right=0;spacingLeft=6;" parent="SPdOxryq6CvYOA-38Vv3-336" vertex="1">
          <mxGeometry x="30" width="137.2678571428571" height="30" as="geometry">
            <mxRectangle width="137.2678571428571" height="30" as="alternateBounds" />
          </mxGeometry>
        </mxCell>
        <mxCell id="y0eG56yNmjeCE-dsxs_L-14" value="" style="shape=tableRow;horizontal=0;startSize=0;swimlaneHead=0;swimlaneBody=0;fillColor=none;collapsible=0;dropTarget=0;points=[[0,0.5],[1,0.5]];portConstraint=eastwest;top=0;left=0;right=0;bottom=0;" parent="SPdOxryq6CvYOA-38Vv3-320" vertex="1">
          <mxGeometry y="210" width="167.2678571428571" height="30" as="geometry" />
        </mxCell>
        <mxCell id="y0eG56yNmjeCE-dsxs_L-15" value="FK" style="shape=partialRectangle;overflow=hidden;connectable=0;fillColor=none;top=0;left=0;bottom=0;right=0;" parent="y0eG56yNmjeCE-dsxs_L-14" vertex="1">
          <mxGeometry width="30" height="30" as="geometry">
            <mxRectangle width="30" height="30" as="alternateBounds" />
          </mxGeometry>
        </mxCell>
        <mxCell id="y0eG56yNmjeCE-dsxs_L-16" value="haircut_id" style="shape=partialRectangle;overflow=hidden;connectable=0;fillColor=none;align=left;top=0;left=0;bottom=0;right=0;spacingLeft=6;" parent="y0eG56yNmjeCE-dsxs_L-14" vertex="1">
          <mxGeometry x="30" width="137.2678571428571" height="30" as="geometry">
            <mxRectangle width="137.2678571428571" height="30" as="alternateBounds" />
          </mxGeometry>
        </mxCell>
        <mxCell id="SPdOxryq6CvYOA-38Vv3-339" value="ship_licence" style="shape=table;startSize=30;container=1;collapsible=1;childLayout=tableLayout;fixedRows=1;rowLines=0;fontStyle=1;align=center;resizeLast=1;" parent="1" vertex="1">
          <mxGeometry x="-1373.25" y="992" width="103.77304347826112" height="100" as="geometry" />
        </mxCell>
        <mxCell id="SPdOxryq6CvYOA-38Vv3-340" value="" style="shape=tableRow;horizontal=0;startSize=0;swimlaneHead=0;swimlaneBody=0;fillColor=none;collapsible=0;dropTarget=0;points=[[0,0.5],[1,0.5]];portConstraint=eastwest;top=0;left=0;right=0;bottom=1;" parent="SPdOxryq6CvYOA-38Vv3-339" vertex="1">
          <mxGeometry y="30" width="103.77304347826112" height="30" as="geometry" />
        </mxCell>
        <mxCell id="SPdOxryq6CvYOA-38Vv3-341" value="PK" style="shape=partialRectangle;overflow=hidden;connectable=0;fillColor=none;top=0;left=0;bottom=0;right=0;fontStyle=1;" parent="SPdOxryq6CvYOA-38Vv3-340" vertex="1">
          <mxGeometry width="30" height="30" as="geometry">
            <mxRectangle width="30" height="30" as="alternateBounds" />
          </mxGeometry>
        </mxCell>
        <mxCell id="SPdOxryq6CvYOA-38Vv3-342" value="id" style="shape=partialRectangle;overflow=hidden;connectable=0;fillColor=none;align=left;top=0;left=0;bottom=0;right=0;spacingLeft=6;fontStyle=5;" parent="SPdOxryq6CvYOA-38Vv3-340" vertex="1">
          <mxGeometry x="30" width="73.77304347826112" height="30" as="geometry">
            <mxRectangle width="73.77304347826112" height="30" as="alternateBounds" />
          </mxGeometry>
        </mxCell>
        <mxCell id="SPdOxryq6CvYOA-38Vv3-343" value="" style="shape=tableRow;horizontal=0;startSize=0;swimlaneHead=0;swimlaneBody=0;fillColor=none;collapsible=0;dropTarget=0;points=[[0,0.5],[1,0.5]];portConstraint=eastwest;top=0;left=0;right=0;bottom=0;" parent="SPdOxryq6CvYOA-38Vv3-339" vertex="1">
          <mxGeometry y="60" width="103.77304347826112" height="30" as="geometry" />
        </mxCell>
        <mxCell id="SPdOxryq6CvYOA-38Vv3-344" value="FK" style="shape=partialRectangle;overflow=hidden;connectable=0;fillColor=none;top=0;left=0;bottom=0;right=0;" parent="SPdOxryq6CvYOA-38Vv3-343" vertex="1">
          <mxGeometry width="30" height="30" as="geometry">
            <mxRectangle width="30" height="30" as="alternateBounds" />
          </mxGeometry>
        </mxCell>
        <mxCell id="SPdOxryq6CvYOA-38Vv3-345" value="owner_id" style="shape=partialRectangle;overflow=hidden;connectable=0;fillColor=none;align=left;top=0;left=0;bottom=0;right=0;spacingLeft=6;" parent="SPdOxryq6CvYOA-38Vv3-343" vertex="1">
          <mxGeometry x="30" width="73.77304347826112" height="30" as="geometry">
            <mxRectangle width="73.77304347826112" height="30" as="alternateBounds" />
          </mxGeometry>
        </mxCell>
        <mxCell id="tx_IO2stBi0yPhVZyPk0-5" style="edgeStyle=orthogonalEdgeStyle;rounded=0;orthogonalLoop=1;jettySize=auto;html=1;exitX=0.5;exitY=1;exitDx=0;exitDy=0;entryX=0.5;entryY=0;entryDx=0;entryDy=0;startArrow=ERmany;startFill=0;endArrow=ERzeroToMany;endFill=0;startSize=16;endSize=16;" parent="1" source="SPdOxryq6CvYOA-38Vv3-320" target="SPdOxryq6CvYOA-38Vv3-339" edge="1">
          <mxGeometry relative="1" as="geometry">
            <mxPoint x="-1390.4999999999998" y="912" as="sourcePoint" />
          </mxGeometry>
        </mxCell>
        <mxCell id="WHR_HpHZX-7r_Uw4XPgh-1" value="&lt;font style=&quot;font-size: 14px;&quot;&gt;licence registry&lt;/font&gt;" style="edgeLabel;html=1;align=center;verticalAlign=middle;resizable=0;points=[];" parent="tx_IO2stBi0yPhVZyPk0-5" vertex="1" connectable="0">
          <mxGeometry x="-0.1478" y="-2" relative="1" as="geometry">
            <mxPoint x="6" y="2" as="offset" />
          </mxGeometry>
        </mxCell>
        <mxCell id="tx_IO2stBi0yPhVZyPk0-10" style="edgeStyle=orthogonalEdgeStyle;rounded=0;orthogonalLoop=1;jettySize=auto;html=1;exitX=0.5;exitY=0;exitDx=0;exitDy=0;entryX=1;entryY=0.5;entryDx=0;entryDy=0;startArrow=ERmandOne;startFill=0;endArrow=ERmandOne;endFill=0;startSize=16;endSize=16;" parent="1" source="SPdOxryq6CvYOA-38Vv3-356" target="SPdOxryq6CvYOA-38Vv3-376" edge="1">
          <mxGeometry relative="1" as="geometry" />
        </mxCell>
        <mxCell id="SPdOxryq6CvYOA-38Vv3-356" value="ship" style="shape=table;startSize=30;container=1;collapsible=1;childLayout=tableLayout;fixedRows=1;rowLines=0;fontStyle=1;align=center;resizeLast=1;" parent="1" vertex="1">
          <mxGeometry x="-1199" y="554" width="145.86842105263133" height="130" as="geometry" />
        </mxCell>
        <mxCell id="SPdOxryq6CvYOA-38Vv3-357" value="" style="shape=tableRow;horizontal=0;startSize=0;swimlaneHead=0;swimlaneBody=0;fillColor=none;collapsible=0;dropTarget=0;points=[[0,0.5],[1,0.5]];portConstraint=eastwest;top=0;left=0;right=0;bottom=1;" parent="SPdOxryq6CvYOA-38Vv3-356" vertex="1">
          <mxGeometry y="30" width="145.86842105263133" height="30" as="geometry" />
        </mxCell>
        <mxCell id="SPdOxryq6CvYOA-38Vv3-358" value="PK" style="shape=partialRectangle;overflow=hidden;connectable=0;fillColor=none;top=0;left=0;bottom=0;right=0;fontStyle=1;" parent="SPdOxryq6CvYOA-38Vv3-357" vertex="1">
          <mxGeometry width="30" height="30" as="geometry">
            <mxRectangle width="30" height="30" as="alternateBounds" />
          </mxGeometry>
        </mxCell>
        <mxCell id="SPdOxryq6CvYOA-38Vv3-359" value="id" style="shape=partialRectangle;overflow=hidden;connectable=0;fillColor=none;align=left;top=0;left=0;bottom=0;right=0;spacingLeft=6;fontStyle=5;" parent="SPdOxryq6CvYOA-38Vv3-357" vertex="1">
          <mxGeometry x="30" width="115.86842105263133" height="30" as="geometry">
            <mxRectangle width="115.86842105263133" height="30" as="alternateBounds" />
          </mxGeometry>
        </mxCell>
        <mxCell id="SPdOxryq6CvYOA-38Vv3-360" value="" style="shape=tableRow;horizontal=0;startSize=0;swimlaneHead=0;swimlaneBody=0;fillColor=none;collapsible=0;dropTarget=0;points=[[0,0.5],[1,0.5]];portConstraint=eastwest;top=0;left=0;right=0;bottom=0;" parent="SPdOxryq6CvYOA-38Vv3-356" vertex="1">
          <mxGeometry y="60" width="145.86842105263133" height="30" as="geometry" />
        </mxCell>
        <mxCell id="SPdOxryq6CvYOA-38Vv3-361" value="" style="shape=partialRectangle;overflow=hidden;connectable=0;fillColor=none;top=0;left=0;bottom=0;right=0;" parent="SPdOxryq6CvYOA-38Vv3-360" vertex="1">
          <mxGeometry width="30" height="30" as="geometry">
            <mxRectangle width="30" height="30" as="alternateBounds" />
          </mxGeometry>
        </mxCell>
        <mxCell id="SPdOxryq6CvYOA-38Vv3-362" value="name" style="shape=partialRectangle;overflow=hidden;connectable=0;fillColor=none;align=left;top=0;left=0;bottom=0;right=0;spacingLeft=6;" parent="SPdOxryq6CvYOA-38Vv3-360" vertex="1">
          <mxGeometry x="30" width="115.86842105263133" height="30" as="geometry">
            <mxRectangle width="115.86842105263133" height="30" as="alternateBounds" />
          </mxGeometry>
        </mxCell>
        <mxCell id="SPdOxryq6CvYOA-38Vv3-363" value="" style="shape=tableRow;horizontal=0;startSize=0;swimlaneHead=0;swimlaneBody=0;fillColor=none;collapsible=0;dropTarget=0;points=[[0,0.5],[1,0.5]];portConstraint=eastwest;top=0;left=0;right=0;bottom=0;" parent="SPdOxryq6CvYOA-38Vv3-356" vertex="1">
          <mxGeometry y="90" width="145.86842105263133" height="30" as="geometry" />
        </mxCell>
        <mxCell id="SPdOxryq6CvYOA-38Vv3-364" value="" style="shape=partialRectangle;overflow=hidden;connectable=0;fillColor=none;top=0;left=0;bottom=0;right=0;" parent="SPdOxryq6CvYOA-38Vv3-363" vertex="1">
          <mxGeometry width="30" height="30" as="geometry">
            <mxRectangle width="30" height="30" as="alternateBounds" />
          </mxGeometry>
        </mxCell>
        <mxCell id="SPdOxryq6CvYOA-38Vv3-365" value="creation_date" style="shape=partialRectangle;overflow=hidden;connectable=0;fillColor=none;align=left;top=0;left=0;bottom=0;right=0;spacingLeft=6;" parent="SPdOxryq6CvYOA-38Vv3-363" vertex="1">
          <mxGeometry x="30" width="115.86842105263133" height="30" as="geometry">
            <mxRectangle width="115.86842105263133" height="30" as="alternateBounds" />
          </mxGeometry>
        </mxCell>
        <mxCell id="tx_IO2stBi0yPhVZyPk0-9" style="edgeStyle=orthogonalEdgeStyle;rounded=0;orthogonalLoop=1;jettySize=auto;html=1;exitX=0.5;exitY=1;exitDx=0;exitDy=0;entryX=0;entryY=0.5;entryDx=0;entryDy=0;startArrow=ERmandOne;startFill=0;endArrow=ERmandOne;endFill=0;startSize=16;endSize=16;" parent="1" source="SPdOxryq6CvYOA-38Vv3-366" target="SPdOxryq6CvYOA-38Vv3-340" edge="1">
          <mxGeometry relative="1" as="geometry" />
        </mxCell>
        <mxCell id="SPdOxryq6CvYOA-38Vv3-366" value="ship_passport" style="shape=table;startSize=30;container=1;collapsible=1;childLayout=tableLayout;fixedRows=1;rowLines=0;fontStyle=1;align=center;resizeLast=1;" parent="1" vertex="1">
          <mxGeometry x="-1573" y="337" width="114.21260869565253" height="130" as="geometry" />
        </mxCell>
        <mxCell id="SPdOxryq6CvYOA-38Vv3-367" value="" style="shape=tableRow;horizontal=0;startSize=0;swimlaneHead=0;swimlaneBody=0;fillColor=none;collapsible=0;dropTarget=0;points=[[0,0.5],[1,0.5]];portConstraint=eastwest;top=0;left=0;right=0;bottom=1;" parent="SPdOxryq6CvYOA-38Vv3-366" vertex="1">
          <mxGeometry y="30" width="114.21260869565253" height="30" as="geometry" />
        </mxCell>
        <mxCell id="SPdOxryq6CvYOA-38Vv3-368" value="PK" style="shape=partialRectangle;overflow=hidden;connectable=0;fillColor=none;top=0;left=0;bottom=0;right=0;fontStyle=1;" parent="SPdOxryq6CvYOA-38Vv3-367" vertex="1">
          <mxGeometry width="30" height="30" as="geometry">
            <mxRectangle width="30" height="30" as="alternateBounds" />
          </mxGeometry>
        </mxCell>
        <mxCell id="SPdOxryq6CvYOA-38Vv3-369" value="id" style="shape=partialRectangle;overflow=hidden;connectable=0;fillColor=none;align=left;top=0;left=0;bottom=0;right=0;spacingLeft=6;fontStyle=5;" parent="SPdOxryq6CvYOA-38Vv3-367" vertex="1">
          <mxGeometry x="30" width="84.21260869565253" height="30" as="geometry">
            <mxRectangle width="84.21260869565253" height="30" as="alternateBounds" />
          </mxGeometry>
        </mxCell>
        <mxCell id="SPdOxryq6CvYOA-38Vv3-373" value="" style="shape=tableRow;horizontal=0;startSize=0;swimlaneHead=0;swimlaneBody=0;fillColor=none;collapsible=0;dropTarget=0;points=[[0,0.5],[1,0.5]];portConstraint=eastwest;top=0;left=0;right=0;bottom=0;" parent="SPdOxryq6CvYOA-38Vv3-366" vertex="1">
          <mxGeometry y="60" width="114.21260869565253" height="30" as="geometry" />
        </mxCell>
        <mxCell id="SPdOxryq6CvYOA-38Vv3-374" value="FK" style="shape=partialRectangle;overflow=hidden;connectable=0;fillColor=none;top=0;left=0;bottom=0;right=0;" parent="SPdOxryq6CvYOA-38Vv3-373" vertex="1">
          <mxGeometry width="30" height="30" as="geometry">
            <mxRectangle width="30" height="30" as="alternateBounds" />
          </mxGeometry>
        </mxCell>
        <mxCell id="SPdOxryq6CvYOA-38Vv3-375" value="licence_id" style="shape=partialRectangle;overflow=hidden;connectable=0;fillColor=none;align=left;top=0;left=0;bottom=0;right=0;spacingLeft=6;" parent="SPdOxryq6CvYOA-38Vv3-373" vertex="1">
          <mxGeometry x="30" width="84.21260869565253" height="30" as="geometry">
            <mxRectangle width="84.21260869565253" height="30" as="alternateBounds" />
          </mxGeometry>
        </mxCell>
        <mxCell id="SPdOxryq6CvYOA-38Vv3-376" value="" style="shape=tableRow;horizontal=0;startSize=0;swimlaneHead=0;swimlaneBody=0;fillColor=none;collapsible=0;dropTarget=0;points=[[0,0.5],[1,0.5]];portConstraint=eastwest;top=0;left=0;right=0;bottom=0;" parent="SPdOxryq6CvYOA-38Vv3-366" vertex="1">
          <mxGeometry y="90" width="114.21260869565253" height="30" as="geometry" />
        </mxCell>
        <mxCell id="SPdOxryq6CvYOA-38Vv3-377" value="FK" style="shape=partialRectangle;overflow=hidden;connectable=0;fillColor=none;top=0;left=0;bottom=0;right=0;" parent="SPdOxryq6CvYOA-38Vv3-376" vertex="1">
          <mxGeometry width="30" height="30" as="geometry">
            <mxRectangle width="30" height="30" as="alternateBounds" />
          </mxGeometry>
        </mxCell>
        <mxCell id="SPdOxryq6CvYOA-38Vv3-378" value="ship_id" style="shape=partialRectangle;overflow=hidden;connectable=0;fillColor=none;align=left;top=0;left=0;bottom=0;right=0;spacingLeft=6;" parent="SPdOxryq6CvYOA-38Vv3-376" vertex="1">
          <mxGeometry x="30" width="84.21260869565253" height="30" as="geometry">
            <mxRectangle width="84.21260869565253" height="30" as="alternateBounds" />
          </mxGeometry>
        </mxCell>
        <mxCell id="SPdOxryq6CvYOA-38Vv3-379" value="interior_element" style="shape=table;startSize=30;container=1;collapsible=1;childLayout=tableLayout;fixedRows=1;rowLines=0;fontStyle=1;align=center;resizeLast=1;" parent="1" vertex="1">
          <mxGeometry x="-1181.21" y="792" width="110.27869565217418" height="100" as="geometry" />
        </mxCell>
        <mxCell id="SPdOxryq6CvYOA-38Vv3-380" value="" style="shape=tableRow;horizontal=0;startSize=0;swimlaneHead=0;swimlaneBody=0;fillColor=none;collapsible=0;dropTarget=0;points=[[0,0.5],[1,0.5]];portConstraint=eastwest;top=0;left=0;right=0;bottom=1;" parent="SPdOxryq6CvYOA-38Vv3-379" vertex="1">
          <mxGeometry y="30" width="110.27869565217418" height="30" as="geometry" />
        </mxCell>
        <mxCell id="SPdOxryq6CvYOA-38Vv3-381" value="PK" style="shape=partialRectangle;overflow=hidden;connectable=0;fillColor=none;top=0;left=0;bottom=0;right=0;fontStyle=1;" parent="SPdOxryq6CvYOA-38Vv3-380" vertex="1">
          <mxGeometry width="30" height="30" as="geometry">
            <mxRectangle width="30" height="30" as="alternateBounds" />
          </mxGeometry>
        </mxCell>
        <mxCell id="SPdOxryq6CvYOA-38Vv3-382" value="id" style="shape=partialRectangle;overflow=hidden;connectable=0;fillColor=none;align=left;top=0;left=0;bottom=0;right=0;spacingLeft=6;fontStyle=5;" parent="SPdOxryq6CvYOA-38Vv3-380" vertex="1">
          <mxGeometry x="30" width="80.27869565217418" height="30" as="geometry">
            <mxRectangle width="80.27869565217418" height="30" as="alternateBounds" />
          </mxGeometry>
        </mxCell>
        <mxCell id="SPdOxryq6CvYOA-38Vv3-386" value="" style="shape=tableRow;horizontal=0;startSize=0;swimlaneHead=0;swimlaneBody=0;fillColor=none;collapsible=0;dropTarget=0;points=[[0,0.5],[1,0.5]];portConstraint=eastwest;top=0;left=0;right=0;bottom=0;" parent="SPdOxryq6CvYOA-38Vv3-379" vertex="1">
          <mxGeometry y="60" width="110.27869565217418" height="30" as="geometry" />
        </mxCell>
        <mxCell id="SPdOxryq6CvYOA-38Vv3-387" value="" style="shape=partialRectangle;overflow=hidden;connectable=0;fillColor=none;top=0;left=0;bottom=0;right=0;" parent="SPdOxryq6CvYOA-38Vv3-386" vertex="1">
          <mxGeometry width="30" height="30" as="geometry">
            <mxRectangle width="30" height="30" as="alternateBounds" />
          </mxGeometry>
        </mxCell>
        <mxCell id="SPdOxryq6CvYOA-38Vv3-388" value="type" style="shape=partialRectangle;overflow=hidden;connectable=0;fillColor=none;align=left;top=0;left=0;bottom=0;right=0;spacingLeft=6;" parent="SPdOxryq6CvYOA-38Vv3-386" vertex="1">
          <mxGeometry x="30" width="80.27869565217418" height="30" as="geometry">
            <mxRectangle width="80.27869565217418" height="30" as="alternateBounds" />
          </mxGeometry>
        </mxCell>
        <mxCell id="tx_IO2stBi0yPhVZyPk0-8" style="edgeStyle=orthogonalEdgeStyle;rounded=0;orthogonalLoop=1;jettySize=auto;html=1;exitX=0.5;exitY=1;exitDx=0;exitDy=0;entryX=0.5;entryY=0;entryDx=0;entryDy=0;startArrow=ERmany;startFill=0;endArrow=ERzeroToMany;endFill=0;startSize=16;endSize=16;" parent="1" source="SPdOxryq6CvYOA-38Vv3-356" target="SPdOxryq6CvYOA-38Vv3-379" edge="1">
          <mxGeometry relative="1" as="geometry">
            <mxPoint x="-1053.5714285714284" y="925" as="sourcePoint" />
          </mxGeometry>
        </mxCell>
        <mxCell id="WHR_HpHZX-7r_Uw4XPgh-2" value="&lt;font style=&quot;font-size: 14px;&quot;&gt;ship interior items registry&lt;/font&gt;" style="edgeLabel;html=1;align=center;verticalAlign=middle;resizable=0;points=[];fontSize=13;" parent="tx_IO2stBi0yPhVZyPk0-8" vertex="1" connectable="0">
          <mxGeometry x="-0.0857" y="-2" relative="1" as="geometry">
            <mxPoint x="6" y="2" as="offset" />
          </mxGeometry>
        </mxCell>
        <mxCell id="tx_IO2stBi0yPhVZyPk0-12" style="edgeStyle=orthogonalEdgeStyle;rounded=0;orthogonalLoop=1;jettySize=auto;html=1;exitX=0;exitY=0.5;exitDx=0;exitDy=0;entryX=1;entryY=0.5;entryDx=0;entryDy=0;startArrow=ERmandOne;startFill=0;endArrow=ERmandOne;endFill=0;startSize=16;endSize=16;" parent="1" source="SPdOxryq6CvYOA-38Vv3-333" target="SPdOxryq6CvYOA-38Vv3-305" edge="1">
          <mxGeometry relative="1" as="geometry" />
        </mxCell>
        <mxCell id="y0eG56yNmjeCE-dsxs_L-1" value="coloured_haircut" style="shape=table;startSize=30;container=1;collapsible=1;childLayout=tableLayout;fixedRows=1;rowLines=0;fontStyle=1;align=center;resizeLast=1;" parent="1" vertex="1">
          <mxGeometry x="-1769" y="889" width="180" height="150" as="geometry" />
        </mxCell>
        <mxCell id="y0eG56yNmjeCE-dsxs_L-2" value="" style="shape=tableRow;horizontal=0;startSize=0;swimlaneHead=0;swimlaneBody=0;fillColor=none;collapsible=0;dropTarget=0;points=[[0,0.5],[1,0.5]];portConstraint=eastwest;top=0;left=0;right=0;bottom=1;" parent="y0eG56yNmjeCE-dsxs_L-1" vertex="1">
          <mxGeometry y="30" width="180" height="30" as="geometry" />
        </mxCell>
        <mxCell id="y0eG56yNmjeCE-dsxs_L-3" value="PK" style="shape=partialRectangle;connectable=0;fillColor=none;top=0;left=0;bottom=0;right=0;fontStyle=1;overflow=hidden;" parent="y0eG56yNmjeCE-dsxs_L-2" vertex="1">
          <mxGeometry width="30" height="30" as="geometry">
            <mxRectangle width="30" height="30" as="alternateBounds" />
          </mxGeometry>
        </mxCell>
        <mxCell id="y0eG56yNmjeCE-dsxs_L-4" value="id" style="shape=partialRectangle;connectable=0;fillColor=none;top=0;left=0;bottom=0;right=0;align=left;spacingLeft=6;fontStyle=5;overflow=hidden;" parent="y0eG56yNmjeCE-dsxs_L-2" vertex="1">
          <mxGeometry x="30" width="150" height="30" as="geometry">
            <mxRectangle width="150" height="30" as="alternateBounds" />
          </mxGeometry>
        </mxCell>
        <mxCell id="y0eG56yNmjeCE-dsxs_L-5" value="" style="shape=tableRow;horizontal=0;startSize=0;swimlaneHead=0;swimlaneBody=0;fillColor=none;collapsible=0;dropTarget=0;points=[[0,0.5],[1,0.5]];portConstraint=eastwest;top=0;left=0;right=0;bottom=0;" parent="y0eG56yNmjeCE-dsxs_L-1" vertex="1">
          <mxGeometry y="60" width="180" height="30" as="geometry" />
        </mxCell>
        <mxCell id="y0eG56yNmjeCE-dsxs_L-6" value="" style="shape=partialRectangle;connectable=0;fillColor=none;top=0;left=0;bottom=0;right=0;editable=1;overflow=hidden;" parent="y0eG56yNmjeCE-dsxs_L-5" vertex="1">
          <mxGeometry width="30" height="30" as="geometry">
            <mxRectangle width="30" height="30" as="alternateBounds" />
          </mxGeometry>
        </mxCell>
        <mxCell id="y0eG56yNmjeCE-dsxs_L-7" value="color" style="shape=partialRectangle;connectable=0;fillColor=none;top=0;left=0;bottom=0;right=0;align=left;spacingLeft=6;overflow=hidden;" parent="y0eG56yNmjeCE-dsxs_L-5" vertex="1">
          <mxGeometry x="30" width="150" height="30" as="geometry">
            <mxRectangle width="150" height="30" as="alternateBounds" />
          </mxGeometry>
        </mxCell>
        <mxCell id="y0eG56yNmjeCE-dsxs_L-8" value="" style="shape=tableRow;horizontal=0;startSize=0;swimlaneHead=0;swimlaneBody=0;fillColor=none;collapsible=0;dropTarget=0;points=[[0,0.5],[1,0.5]];portConstraint=eastwest;top=0;left=0;right=0;bottom=0;" parent="y0eG56yNmjeCE-dsxs_L-1" vertex="1">
          <mxGeometry y="90" width="180" height="30" as="geometry" />
        </mxCell>
        <mxCell id="y0eG56yNmjeCE-dsxs_L-9" value="" style="shape=partialRectangle;connectable=0;fillColor=none;top=0;left=0;bottom=0;right=0;editable=1;overflow=hidden;" parent="y0eG56yNmjeCE-dsxs_L-8" vertex="1">
          <mxGeometry width="30" height="30" as="geometry">
            <mxRectangle width="30" height="30" as="alternateBounds" />
          </mxGeometry>
        </mxCell>
        <mxCell id="y0eG56yNmjeCE-dsxs_L-10" value="date_from" style="shape=partialRectangle;connectable=0;fillColor=none;top=0;left=0;bottom=0;right=0;align=left;spacingLeft=6;overflow=hidden;" parent="y0eG56yNmjeCE-dsxs_L-8" vertex="1">
          <mxGeometry x="30" width="150" height="30" as="geometry">
            <mxRectangle width="150" height="30" as="alternateBounds" />
          </mxGeometry>
        </mxCell>
        <mxCell id="y0eG56yNmjeCE-dsxs_L-11" value="" style="shape=tableRow;horizontal=0;startSize=0;swimlaneHead=0;swimlaneBody=0;fillColor=none;collapsible=0;dropTarget=0;points=[[0,0.5],[1,0.5]];portConstraint=eastwest;top=0;left=0;right=0;bottom=0;" parent="y0eG56yNmjeCE-dsxs_L-1" vertex="1">
          <mxGeometry y="120" width="180" height="30" as="geometry" />
        </mxCell>
        <mxCell id="y0eG56yNmjeCE-dsxs_L-12" value="" style="shape=partialRectangle;connectable=0;fillColor=none;top=0;left=0;bottom=0;right=0;editable=1;overflow=hidden;" parent="y0eG56yNmjeCE-dsxs_L-11" vertex="1">
          <mxGeometry width="30" height="30" as="geometry">
            <mxRectangle width="30" height="30" as="alternateBounds" />
          </mxGeometry>
        </mxCell>
        <mxCell id="y0eG56yNmjeCE-dsxs_L-13" value="name" style="shape=partialRectangle;connectable=0;fillColor=none;top=0;left=0;bottom=0;right=0;align=left;spacingLeft=6;overflow=hidden;" parent="y0eG56yNmjeCE-dsxs_L-11" vertex="1">
          <mxGeometry x="30" width="150" height="30" as="geometry">
            <mxRectangle width="150" height="30" as="alternateBounds" />
          </mxGeometry>
        </mxCell>
        <mxCell id="y0eG56yNmjeCE-dsxs_L-17" style="edgeStyle=orthogonalEdgeStyle;rounded=0;orthogonalLoop=1;jettySize=auto;html=1;exitX=0;exitY=0.5;exitDx=0;exitDy=0;entryX=0.5;entryY=0;entryDx=0;entryDy=0;startArrow=ERmandOne;startFill=0;endArrow=ERzeroToOne;endFill=0;endSize=16;startSize=16;" parent="1" source="y0eG56yNmjeCE-dsxs_L-14" target="y0eG56yNmjeCE-dsxs_L-1" edge="1">
          <mxGeometry relative="1" as="geometry" />
        </mxCell>
      </root>
    </mxGraphModel>
  </diagram>
  <diagram id="HVnb9eWFEhm6bAVe1KLh" name="datalogical">
    <mxGraphModel dx="4087" dy="986" grid="0" gridSize="10" guides="1" tooltips="1" connect="1" arrows="1" fold="1" page="0" pageScale="1" pageWidth="1100" pageHeight="850" math="0" shadow="0">
      <root>
        <mxCell id="0" />
        <mxCell id="1" parent="0" />
        <mxCell id="pCWxr_TlRG8uWZxQKZwK-1" value="location" style="shape=table;startSize=30;container=1;collapsible=1;childLayout=tableLayout;fixedRows=1;rowLines=0;fontStyle=1;align=center;resizeLast=1;" parent="1" vertex="1">
          <mxGeometry x="-2228" y="456" width="214.97619047619037" height="190" as="geometry" />
        </mxCell>
        <mxCell id="pCWxr_TlRG8uWZxQKZwK-2" value="" style="shape=tableRow;horizontal=0;startSize=0;swimlaneHead=0;swimlaneBody=0;fillColor=none;collapsible=0;dropTarget=0;points=[[0,0.5],[1,0.5]];portConstraint=eastwest;top=0;left=0;right=0;bottom=1;" parent="pCWxr_TlRG8uWZxQKZwK-1" vertex="1">
          <mxGeometry y="30" width="214.97619047619037" height="30" as="geometry" />
        </mxCell>
        <mxCell id="pCWxr_TlRG8uWZxQKZwK-3" value="PK" style="shape=partialRectangle;overflow=hidden;connectable=0;fillColor=none;top=0;left=0;bottom=0;right=0;fontStyle=1;" parent="pCWxr_TlRG8uWZxQKZwK-2" vertex="1">
          <mxGeometry width="30" height="30" as="geometry">
            <mxRectangle width="30" height="30" as="alternateBounds" />
          </mxGeometry>
        </mxCell>
        <mxCell id="pCWxr_TlRG8uWZxQKZwK-4" value="id SERIAL " style="shape=partialRectangle;overflow=hidden;connectable=0;fillColor=none;align=left;top=0;left=0;bottom=0;right=0;spacingLeft=6;fontStyle=5;" parent="pCWxr_TlRG8uWZxQKZwK-2" vertex="1">
          <mxGeometry x="30" width="184.97619047619037" height="30" as="geometry">
            <mxRectangle width="184.97619047619037" height="30" as="alternateBounds" />
          </mxGeometry>
        </mxCell>
        <mxCell id="pCWxr_TlRG8uWZxQKZwK-5" value="" style="shape=tableRow;horizontal=0;startSize=0;swimlaneHead=0;swimlaneBody=0;fillColor=none;collapsible=0;dropTarget=0;points=[[0,0.5],[1,0.5]];portConstraint=eastwest;top=0;left=0;right=0;bottom=0;" parent="pCWxr_TlRG8uWZxQKZwK-1" vertex="1">
          <mxGeometry y="60" width="214.97619047619037" height="30" as="geometry" />
        </mxCell>
        <mxCell id="pCWxr_TlRG8uWZxQKZwK-6" value="" style="shape=partialRectangle;overflow=hidden;connectable=0;fillColor=none;top=0;left=0;bottom=0;right=0;" parent="pCWxr_TlRG8uWZxQKZwK-5" vertex="1">
          <mxGeometry width="30" height="30" as="geometry">
            <mxRectangle width="30" height="30" as="alternateBounds" />
          </mxGeometry>
        </mxCell>
        <mxCell id="pCWxr_TlRG8uWZxQKZwK-7" value="description VARCHAR(64)" style="shape=partialRectangle;overflow=hidden;connectable=0;fillColor=none;align=left;top=0;left=0;bottom=0;right=0;spacingLeft=6;" parent="pCWxr_TlRG8uWZxQKZwK-5" vertex="1">
          <mxGeometry x="30" width="184.97619047619037" height="30" as="geometry">
            <mxRectangle width="184.97619047619037" height="30" as="alternateBounds" />
          </mxGeometry>
        </mxCell>
        <mxCell id="pCWxr_TlRG8uWZxQKZwK-8" value="" style="shape=tableRow;horizontal=0;startSize=0;swimlaneHead=0;swimlaneBody=0;fillColor=none;collapsible=0;dropTarget=0;points=[[0,0.5],[1,0.5]];portConstraint=eastwest;top=0;left=0;right=0;bottom=0;" parent="pCWxr_TlRG8uWZxQKZwK-1" vertex="1">
          <mxGeometry y="90" width="214.97619047619037" height="30" as="geometry" />
        </mxCell>
        <mxCell id="pCWxr_TlRG8uWZxQKZwK-9" value="" style="shape=partialRectangle;overflow=hidden;connectable=0;fillColor=none;top=0;left=0;bottom=0;right=0;" parent="pCWxr_TlRG8uWZxQKZwK-8" vertex="1">
          <mxGeometry width="30" height="30" as="geometry">
            <mxRectangle width="30" height="30" as="alternateBounds" />
          </mxGeometry>
        </mxCell>
        <mxCell id="pCWxr_TlRG8uWZxQKZwK-10" value="x_coord FLOAT" style="shape=partialRectangle;overflow=hidden;connectable=0;fillColor=none;align=left;top=0;left=0;bottom=0;right=0;spacingLeft=6;" parent="pCWxr_TlRG8uWZxQKZwK-8" vertex="1">
          <mxGeometry x="30" width="184.97619047619037" height="30" as="geometry">
            <mxRectangle width="184.97619047619037" height="30" as="alternateBounds" />
          </mxGeometry>
        </mxCell>
        <mxCell id="pCWxr_TlRG8uWZxQKZwK-11" value="" style="shape=tableRow;horizontal=0;startSize=0;swimlaneHead=0;swimlaneBody=0;fillColor=none;collapsible=0;dropTarget=0;points=[[0,0.5],[1,0.5]];portConstraint=eastwest;top=0;left=0;right=0;bottom=0;" parent="pCWxr_TlRG8uWZxQKZwK-1" vertex="1">
          <mxGeometry y="120" width="214.97619047619037" height="30" as="geometry" />
        </mxCell>
        <mxCell id="pCWxr_TlRG8uWZxQKZwK-12" value="" style="shape=partialRectangle;overflow=hidden;connectable=0;fillColor=none;top=0;left=0;bottom=0;right=0;" parent="pCWxr_TlRG8uWZxQKZwK-11" vertex="1">
          <mxGeometry width="30" height="30" as="geometry">
            <mxRectangle width="30" height="30" as="alternateBounds" />
          </mxGeometry>
        </mxCell>
        <mxCell id="pCWxr_TlRG8uWZxQKZwK-13" value="y_coord FLOAT" style="shape=partialRectangle;overflow=hidden;connectable=0;fillColor=none;align=left;top=0;left=0;bottom=0;right=0;spacingLeft=6;" parent="pCWxr_TlRG8uWZxQKZwK-11" vertex="1">
          <mxGeometry x="30" width="184.97619047619037" height="30" as="geometry">
            <mxRectangle width="184.97619047619037" height="30" as="alternateBounds" />
          </mxGeometry>
        </mxCell>
        <mxCell id="pCWxr_TlRG8uWZxQKZwK-14" value="" style="shape=tableRow;horizontal=0;startSize=0;swimlaneHead=0;swimlaneBody=0;fillColor=none;collapsible=0;dropTarget=0;points=[[0,0.5],[1,0.5]];portConstraint=eastwest;top=0;left=0;right=0;bottom=0;" parent="pCWxr_TlRG8uWZxQKZwK-1" vertex="1">
          <mxGeometry y="150" width="214.97619047619037" height="30" as="geometry" />
        </mxCell>
        <mxCell id="pCWxr_TlRG8uWZxQKZwK-15" value="" style="shape=partialRectangle;overflow=hidden;connectable=0;fillColor=none;top=0;left=0;bottom=0;right=0;" parent="pCWxr_TlRG8uWZxQKZwK-14" vertex="1">
          <mxGeometry width="30" height="30" as="geometry">
            <mxRectangle width="30" height="30" as="alternateBounds" />
          </mxGeometry>
        </mxCell>
        <mxCell id="pCWxr_TlRG8uWZxQKZwK-16" value="z_coord FLOAT" style="shape=partialRectangle;overflow=hidden;connectable=0;fillColor=none;align=left;top=0;left=0;bottom=0;right=0;spacingLeft=6;" parent="pCWxr_TlRG8uWZxQKZwK-14" vertex="1">
          <mxGeometry x="30" width="184.97619047619037" height="30" as="geometry">
            <mxRectangle width="184.97619047619037" height="30" as="alternateBounds" />
          </mxGeometry>
        </mxCell>
        <mxCell id="pCWxr_TlRG8uWZxQKZwK-17" value="person" style="shape=table;startSize=30;container=1;collapsible=1;childLayout=tableLayout;fixedRows=1;rowLines=0;fontStyle=1;align=center;resizeLast=1;" parent="1" vertex="1">
          <mxGeometry x="-1603.9999999999998" y="485" width="192.52999999999997" height="250" as="geometry" />
        </mxCell>
        <mxCell id="pCWxr_TlRG8uWZxQKZwK-18" value="" style="shape=tableRow;horizontal=0;startSize=0;swimlaneHead=0;swimlaneBody=0;fillColor=none;collapsible=0;dropTarget=0;points=[[0,0.5],[1,0.5]];portConstraint=eastwest;top=0;left=0;right=0;bottom=1;" parent="pCWxr_TlRG8uWZxQKZwK-17" vertex="1">
          <mxGeometry y="30" width="192.52999999999997" height="30" as="geometry" />
        </mxCell>
        <mxCell id="pCWxr_TlRG8uWZxQKZwK-19" value="PK" style="shape=partialRectangle;overflow=hidden;connectable=0;fillColor=none;top=0;left=0;bottom=0;right=0;fontStyle=1;" parent="pCWxr_TlRG8uWZxQKZwK-18" vertex="1">
          <mxGeometry width="30" height="30" as="geometry">
            <mxRectangle width="30" height="30" as="alternateBounds" />
          </mxGeometry>
        </mxCell>
        <mxCell id="pCWxr_TlRG8uWZxQKZwK-20" value="id SERIAL " style="shape=partialRectangle;overflow=hidden;connectable=0;fillColor=none;align=left;top=0;left=0;bottom=0;right=0;spacingLeft=6;fontStyle=5;" parent="pCWxr_TlRG8uWZxQKZwK-18" vertex="1">
          <mxGeometry x="30" width="162.52999999999997" height="30" as="geometry">
            <mxRectangle width="162.52999999999997" height="30" as="alternateBounds" />
          </mxGeometry>
        </mxCell>
        <mxCell id="pCWxr_TlRG8uWZxQKZwK-21" value="" style="shape=tableRow;horizontal=0;startSize=0;swimlaneHead=0;swimlaneBody=0;fillColor=none;collapsible=0;dropTarget=0;points=[[0,0.5],[1,0.5]];portConstraint=eastwest;top=0;left=0;right=0;bottom=0;" parent="pCWxr_TlRG8uWZxQKZwK-17" vertex="1">
          <mxGeometry y="60" width="192.52999999999997" height="30" as="geometry" />
        </mxCell>
        <mxCell id="pCWxr_TlRG8uWZxQKZwK-22" value="" style="shape=partialRectangle;overflow=hidden;connectable=0;fillColor=none;top=0;left=0;bottom=0;right=0;" parent="pCWxr_TlRG8uWZxQKZwK-21" vertex="1">
          <mxGeometry width="30" height="30" as="geometry">
            <mxRectangle width="30" height="30" as="alternateBounds" />
          </mxGeometry>
        </mxCell>
        <mxCell id="pCWxr_TlRG8uWZxQKZwK-23" value="name VARCHAR(32)" style="shape=partialRectangle;overflow=hidden;connectable=0;fillColor=none;align=left;top=0;left=0;bottom=0;right=0;spacingLeft=6;" parent="pCWxr_TlRG8uWZxQKZwK-21" vertex="1">
          <mxGeometry x="30" width="162.52999999999997" height="30" as="geometry">
            <mxRectangle width="162.52999999999997" height="30" as="alternateBounds" />
          </mxGeometry>
        </mxCell>
        <mxCell id="pCWxr_TlRG8uWZxQKZwK-24" value="" style="shape=tableRow;horizontal=0;startSize=0;swimlaneHead=0;swimlaneBody=0;fillColor=none;collapsible=0;dropTarget=0;points=[[0,0.5],[1,0.5]];portConstraint=eastwest;top=0;left=0;right=0;bottom=0;" parent="pCWxr_TlRG8uWZxQKZwK-17" vertex="1">
          <mxGeometry y="90" width="192.52999999999997" height="30" as="geometry" />
        </mxCell>
        <mxCell id="pCWxr_TlRG8uWZxQKZwK-25" value="" style="shape=partialRectangle;overflow=hidden;connectable=0;fillColor=none;top=0;left=0;bottom=0;right=0;" parent="pCWxr_TlRG8uWZxQKZwK-24" vertex="1">
          <mxGeometry width="30" height="30" as="geometry">
            <mxRectangle width="30" height="30" as="alternateBounds" />
          </mxGeometry>
        </mxCell>
        <mxCell id="pCWxr_TlRG8uWZxQKZwK-26" value="age INT" style="shape=partialRectangle;overflow=hidden;connectable=0;fillColor=none;align=left;top=0;left=0;bottom=0;right=0;spacingLeft=6;" parent="pCWxr_TlRG8uWZxQKZwK-24" vertex="1">
          <mxGeometry x="30" width="162.52999999999997" height="30" as="geometry">
            <mxRectangle width="162.52999999999997" height="30" as="alternateBounds" />
          </mxGeometry>
        </mxCell>
        <mxCell id="pCWxr_TlRG8uWZxQKZwK-27" value="" style="shape=tableRow;horizontal=0;startSize=0;swimlaneHead=0;swimlaneBody=0;fillColor=none;collapsible=0;dropTarget=0;points=[[0,0.5],[1,0.5]];portConstraint=eastwest;top=0;left=0;right=0;bottom=0;" parent="pCWxr_TlRG8uWZxQKZwK-17" vertex="1">
          <mxGeometry y="120" width="192.52999999999997" height="30" as="geometry" />
        </mxCell>
        <mxCell id="pCWxr_TlRG8uWZxQKZwK-28" value="" style="shape=partialRectangle;overflow=hidden;connectable=0;fillColor=none;top=0;left=0;bottom=0;right=0;" parent="pCWxr_TlRG8uWZxQKZwK-27" vertex="1">
          <mxGeometry width="30" height="30" as="geometry">
            <mxRectangle width="30" height="30" as="alternateBounds" />
          </mxGeometry>
        </mxCell>
        <mxCell id="pCWxr_TlRG8uWZxQKZwK-29" value="gender person_gender" style="shape=partialRectangle;overflow=hidden;connectable=0;fillColor=none;align=left;top=0;left=0;bottom=0;right=0;spacingLeft=6;" parent="pCWxr_TlRG8uWZxQKZwK-27" vertex="1">
          <mxGeometry x="30" width="162.52999999999997" height="30" as="geometry">
            <mxRectangle width="162.52999999999997" height="30" as="alternateBounds" />
          </mxGeometry>
        </mxCell>
        <mxCell id="pCWxr_TlRG8uWZxQKZwK-30" value="" style="shape=tableRow;horizontal=0;startSize=0;swimlaneHead=0;swimlaneBody=0;fillColor=none;collapsible=0;dropTarget=0;points=[[0,0.5],[1,0.5]];portConstraint=eastwest;top=0;left=0;right=0;bottom=0;" parent="pCWxr_TlRG8uWZxQKZwK-17" vertex="1">
          <mxGeometry y="150" width="192.52999999999997" height="30" as="geometry" />
        </mxCell>
        <mxCell id="pCWxr_TlRG8uWZxQKZwK-31" value="FK" style="shape=partialRectangle;overflow=hidden;connectable=0;fillColor=none;top=0;left=0;bottom=0;right=0;" parent="pCWxr_TlRG8uWZxQKZwK-30" vertex="1">
          <mxGeometry width="30" height="30" as="geometry">
            <mxRectangle width="30" height="30" as="alternateBounds" />
          </mxGeometry>
        </mxCell>
        <mxCell id="pCWxr_TlRG8uWZxQKZwK-32" value="location_id INT" style="shape=partialRectangle;overflow=hidden;connectable=0;fillColor=none;align=left;top=0;left=0;bottom=0;right=0;spacingLeft=6;" parent="pCWxr_TlRG8uWZxQKZwK-30" vertex="1">
          <mxGeometry x="30" width="162.52999999999997" height="30" as="geometry">
            <mxRectangle width="162.52999999999997" height="30" as="alternateBounds" />
          </mxGeometry>
        </mxCell>
        <mxCell id="pCWxr_TlRG8uWZxQKZwK-33" value="" style="shape=tableRow;horizontal=0;startSize=0;swimlaneHead=0;swimlaneBody=0;fillColor=none;collapsible=0;dropTarget=0;points=[[0,0.5],[1,0.5]];portConstraint=eastwest;top=0;left=0;right=0;bottom=0;" parent="pCWxr_TlRG8uWZxQKZwK-17" vertex="1">
          <mxGeometry y="180" width="192.52999999999997" height="30" as="geometry" />
        </mxCell>
        <mxCell id="pCWxr_TlRG8uWZxQKZwK-34" value="" style="shape=partialRectangle;overflow=hidden;connectable=0;fillColor=none;top=0;left=0;bottom=0;right=0;" parent="pCWxr_TlRG8uWZxQKZwK-33" vertex="1">
          <mxGeometry width="30" height="30" as="geometry">
            <mxRectangle width="30" height="30" as="alternateBounds" />
          </mxGeometry>
        </mxCell>
        <mxCell id="pCWxr_TlRG8uWZxQKZwK-35" value="character VARCHAR(32)" style="shape=partialRectangle;overflow=hidden;connectable=0;fillColor=none;align=left;top=0;left=0;bottom=0;right=0;spacingLeft=6;" parent="pCWxr_TlRG8uWZxQKZwK-33" vertex="1">
          <mxGeometry x="30" width="162.52999999999997" height="30" as="geometry">
            <mxRectangle width="162.52999999999997" height="30" as="alternateBounds" />
          </mxGeometry>
        </mxCell>
        <mxCell id="96WHZK6G3XDEFh7gXQlD-104" value="" style="shape=tableRow;horizontal=0;startSize=0;swimlaneHead=0;swimlaneBody=0;fillColor=none;collapsible=0;dropTarget=0;points=[[0,0.5],[1,0.5]];portConstraint=eastwest;top=0;left=0;right=0;bottom=0;" parent="pCWxr_TlRG8uWZxQKZwK-17" vertex="1">
          <mxGeometry y="210" width="192.52999999999997" height="30" as="geometry" />
        </mxCell>
        <mxCell id="96WHZK6G3XDEFh7gXQlD-105" value="FK" style="shape=partialRectangle;overflow=hidden;connectable=0;fillColor=none;top=0;left=0;bottom=0;right=0;" parent="96WHZK6G3XDEFh7gXQlD-104" vertex="1">
          <mxGeometry width="30" height="30" as="geometry">
            <mxRectangle width="30" height="30" as="alternateBounds" />
          </mxGeometry>
        </mxCell>
        <mxCell id="96WHZK6G3XDEFh7gXQlD-106" value="haircut_id INT" style="shape=partialRectangle;overflow=hidden;connectable=0;fillColor=none;align=left;top=0;left=0;bottom=0;right=0;spacingLeft=6;" parent="96WHZK6G3XDEFh7gXQlD-104" vertex="1">
          <mxGeometry x="30" width="162.52999999999997" height="30" as="geometry">
            <mxRectangle width="162.52999999999997" height="30" as="alternateBounds" />
          </mxGeometry>
        </mxCell>
        <mxCell id="pCWxr_TlRG8uWZxQKZwK-36" value="ship_licence" style="shape=table;startSize=30;container=1;collapsible=1;childLayout=tableLayout;fixedRows=1;rowLines=0;fontStyle=1;align=center;resizeLast=1;" parent="1" vertex="1">
          <mxGeometry x="-1629" y="941.5" width="190.43471264367827" height="100" as="geometry" />
        </mxCell>
        <mxCell id="pCWxr_TlRG8uWZxQKZwK-37" value="" style="shape=tableRow;horizontal=0;startSize=0;swimlaneHead=0;swimlaneBody=0;fillColor=none;collapsible=0;dropTarget=0;points=[[0,0.5],[1,0.5]];portConstraint=eastwest;top=0;left=0;right=0;bottom=1;" parent="pCWxr_TlRG8uWZxQKZwK-36" vertex="1">
          <mxGeometry y="30" width="190.43471264367827" height="30" as="geometry" />
        </mxCell>
        <mxCell id="pCWxr_TlRG8uWZxQKZwK-38" value="PK" style="shape=partialRectangle;overflow=hidden;connectable=0;fillColor=none;top=0;left=0;bottom=0;right=0;fontStyle=1;" parent="pCWxr_TlRG8uWZxQKZwK-37" vertex="1">
          <mxGeometry width="30" height="30" as="geometry">
            <mxRectangle width="30" height="30" as="alternateBounds" />
          </mxGeometry>
        </mxCell>
        <mxCell id="pCWxr_TlRG8uWZxQKZwK-39" value="id SERIAL " style="shape=partialRectangle;overflow=hidden;connectable=0;fillColor=none;align=left;top=0;left=0;bottom=0;right=0;spacingLeft=6;fontStyle=5;" parent="pCWxr_TlRG8uWZxQKZwK-37" vertex="1">
          <mxGeometry x="30" width="160.43471264367827" height="30" as="geometry">
            <mxRectangle width="160.43471264367827" height="30" as="alternateBounds" />
          </mxGeometry>
        </mxCell>
        <mxCell id="pCWxr_TlRG8uWZxQKZwK-40" value="" style="shape=tableRow;horizontal=0;startSize=0;swimlaneHead=0;swimlaneBody=0;fillColor=none;collapsible=0;dropTarget=0;points=[[0,0.5],[1,0.5]];portConstraint=eastwest;top=0;left=0;right=0;bottom=0;" parent="pCWxr_TlRG8uWZxQKZwK-36" vertex="1">
          <mxGeometry y="60" width="190.43471264367827" height="30" as="geometry" />
        </mxCell>
        <mxCell id="pCWxr_TlRG8uWZxQKZwK-41" value="FK" style="shape=partialRectangle;overflow=hidden;connectable=0;fillColor=none;top=0;left=0;bottom=0;right=0;" parent="pCWxr_TlRG8uWZxQKZwK-40" vertex="1">
          <mxGeometry width="30" height="30" as="geometry">
            <mxRectangle width="30" height="30" as="alternateBounds" />
          </mxGeometry>
        </mxCell>
        <mxCell id="pCWxr_TlRG8uWZxQKZwK-42" value="owner_id INT" style="shape=partialRectangle;overflow=hidden;connectable=0;fillColor=none;align=left;top=0;left=0;bottom=0;right=0;spacingLeft=6;" parent="pCWxr_TlRG8uWZxQKZwK-40" vertex="1">
          <mxGeometry x="30" width="160.43471264367827" height="30" as="geometry">
            <mxRectangle width="160.43471264367827" height="30" as="alternateBounds" />
          </mxGeometry>
        </mxCell>
        <mxCell id="pCWxr_TlRG8uWZxQKZwK-46" style="edgeStyle=orthogonalEdgeStyle;rounded=0;orthogonalLoop=1;jettySize=auto;html=1;exitX=0;exitY=0.5;exitDx=0;exitDy=0;entryX=0;entryY=0.5;entryDx=0;entryDy=0;startArrow=ERzeroToMany;startFill=0;endArrow=ERmandOne;endFill=0;endSize=16;startSize=16;" parent="1" source="pCWxr_TlRG8uWZxQKZwK-49" target="pCWxr_TlRG8uWZxQKZwK-18" edge="1">
          <mxGeometry relative="1" as="geometry" />
        </mxCell>
        <mxCell id="pCWxr_TlRG8uWZxQKZwK-47" style="edgeStyle=orthogonalEdgeStyle;rounded=0;orthogonalLoop=1;jettySize=auto;html=1;exitX=0;exitY=0.5;exitDx=0;exitDy=0;entryX=0;entryY=0.5;entryDx=0;entryDy=0;startArrow=ERmany;startFill=0;endArrow=ERmandOne;endFill=0;startSize=16;endSize=16;" parent="1" source="pCWxr_TlRG8uWZxQKZwK-52" target="pCWxr_TlRG8uWZxQKZwK-37" edge="1">
          <mxGeometry relative="1" as="geometry" />
        </mxCell>
        <mxCell id="pCWxr_TlRG8uWZxQKZwK-48" value="ship_licence_registry" style="shape=table;startSize=30;container=1;collapsible=1;childLayout=tableLayout;fixedRows=1;rowLines=0;fontStyle=1;align=center;resizeLast=1;" parent="1" vertex="1">
          <mxGeometry x="-1580" y="774" width="157.3028571428572" height="130" as="geometry" />
        </mxCell>
        <mxCell id="pCWxr_TlRG8uWZxQKZwK-49" value="" style="shape=tableRow;horizontal=0;startSize=0;swimlaneHead=0;swimlaneBody=0;fillColor=none;collapsible=0;dropTarget=0;points=[[0,0.5],[1,0.5]];portConstraint=eastwest;top=0;left=0;right=0;bottom=0;" parent="pCWxr_TlRG8uWZxQKZwK-48" vertex="1">
          <mxGeometry y="30" width="157.3028571428572" height="30" as="geometry" />
        </mxCell>
        <mxCell id="pCWxr_TlRG8uWZxQKZwK-50" value="FK" style="shape=partialRectangle;overflow=hidden;connectable=0;fillColor=none;top=0;left=0;bottom=0;right=0;" parent="pCWxr_TlRG8uWZxQKZwK-49" vertex="1">
          <mxGeometry width="30" height="30" as="geometry">
            <mxRectangle width="30" height="30" as="alternateBounds" />
          </mxGeometry>
        </mxCell>
        <mxCell id="pCWxr_TlRG8uWZxQKZwK-51" value="owner_id INT" style="shape=partialRectangle;overflow=hidden;connectable=0;fillColor=none;align=left;top=0;left=0;bottom=0;right=0;spacingLeft=6;" parent="pCWxr_TlRG8uWZxQKZwK-49" vertex="1">
          <mxGeometry x="30" width="127.30285714285719" height="30" as="geometry">
            <mxRectangle width="127.30285714285719" height="30" as="alternateBounds" />
          </mxGeometry>
        </mxCell>
        <mxCell id="pCWxr_TlRG8uWZxQKZwK-52" value="" style="shape=tableRow;horizontal=0;startSize=0;swimlaneHead=0;swimlaneBody=0;fillColor=none;collapsible=0;dropTarget=0;points=[[0,0.5],[1,0.5]];portConstraint=eastwest;top=0;left=0;right=0;bottom=0;" parent="pCWxr_TlRG8uWZxQKZwK-48" vertex="1">
          <mxGeometry y="60" width="157.3028571428572" height="30" as="geometry" />
        </mxCell>
        <mxCell id="pCWxr_TlRG8uWZxQKZwK-53" value="FK" style="shape=partialRectangle;overflow=hidden;connectable=0;fillColor=none;top=0;left=0;bottom=0;right=0;" parent="pCWxr_TlRG8uWZxQKZwK-52" vertex="1">
          <mxGeometry width="30" height="30" as="geometry">
            <mxRectangle width="30" height="30" as="alternateBounds" />
          </mxGeometry>
        </mxCell>
        <mxCell id="pCWxr_TlRG8uWZxQKZwK-54" value="license_id INT" style="shape=partialRectangle;overflow=hidden;connectable=0;fillColor=none;align=left;top=0;left=0;bottom=0;right=0;spacingLeft=6;" parent="pCWxr_TlRG8uWZxQKZwK-52" vertex="1">
          <mxGeometry x="30" width="127.30285714285719" height="30" as="geometry">
            <mxRectangle width="127.30285714285719" height="30" as="alternateBounds" />
          </mxGeometry>
        </mxCell>
        <mxCell id="J1gQTecfWi3mHXRinpkM-1" value="" style="shape=tableRow;horizontal=0;startSize=0;swimlaneHead=0;swimlaneBody=0;fillColor=none;collapsible=0;dropTarget=0;points=[[0,0.5],[1,0.5]];portConstraint=eastwest;top=0;left=0;right=0;bottom=0;" parent="pCWxr_TlRG8uWZxQKZwK-48" vertex="1">
          <mxGeometry y="90" width="157.3028571428572" height="30" as="geometry" />
        </mxCell>
        <mxCell id="J1gQTecfWi3mHXRinpkM-2" value="" style="shape=partialRectangle;overflow=hidden;connectable=0;fillColor=none;top=0;left=0;bottom=0;right=0;" parent="J1gQTecfWi3mHXRinpkM-1" vertex="1">
          <mxGeometry width="30" height="30" as="geometry">
            <mxRectangle width="30" height="30" as="alternateBounds" />
          </mxGeometry>
        </mxCell>
        <mxCell id="J1gQTecfWi3mHXRinpkM-3" value="status license_status" style="shape=partialRectangle;overflow=hidden;connectable=0;fillColor=none;align=left;top=0;left=0;bottom=0;right=0;spacingLeft=6;" parent="J1gQTecfWi3mHXRinpkM-1" vertex="1">
          <mxGeometry x="30" width="127.30285714285719" height="30" as="geometry">
            <mxRectangle width="127.30285714285719" height="30" as="alternateBounds" />
          </mxGeometry>
        </mxCell>
        <mxCell id="pCWxr_TlRG8uWZxQKZwK-55" style="edgeStyle=orthogonalEdgeStyle;rounded=0;orthogonalLoop=1;jettySize=auto;html=1;exitX=0;exitY=0.5;exitDx=0;exitDy=0;entryX=1;entryY=0.5;entryDx=0;entryDy=0;startArrow=ERmandOne;startFill=0;endArrow=ERmandOne;endFill=0;startSize=16;endSize=16;" parent="1" source="pCWxr_TlRG8uWZxQKZwK-57" target="pCWxr_TlRG8uWZxQKZwK-77" edge="1">
          <mxGeometry relative="1" as="geometry">
            <Array as="points">
              <mxPoint x="-1298" y="561" />
              <mxPoint x="-1298" y="378" />
            </Array>
          </mxGeometry>
        </mxCell>
        <mxCell id="pCWxr_TlRG8uWZxQKZwK-56" value="ship" style="shape=table;startSize=30;container=1;collapsible=1;childLayout=tableLayout;fixedRows=1;rowLines=0;fontStyle=1;align=center;resizeLast=1;" parent="1" vertex="1">
          <mxGeometry x="-1207" y="516" width="193.92857142857133" height="130" as="geometry" />
        </mxCell>
        <mxCell id="pCWxr_TlRG8uWZxQKZwK-57" value="" style="shape=tableRow;horizontal=0;startSize=0;swimlaneHead=0;swimlaneBody=0;fillColor=none;collapsible=0;dropTarget=0;points=[[0,0.5],[1,0.5]];portConstraint=eastwest;top=0;left=0;right=0;bottom=1;" parent="pCWxr_TlRG8uWZxQKZwK-56" vertex="1">
          <mxGeometry y="30" width="193.92857142857133" height="30" as="geometry" />
        </mxCell>
        <mxCell id="pCWxr_TlRG8uWZxQKZwK-58" value="PK" style="shape=partialRectangle;overflow=hidden;connectable=0;fillColor=none;top=0;left=0;bottom=0;right=0;fontStyle=1;" parent="pCWxr_TlRG8uWZxQKZwK-57" vertex="1">
          <mxGeometry width="30" height="30" as="geometry">
            <mxRectangle width="30" height="30" as="alternateBounds" />
          </mxGeometry>
        </mxCell>
        <mxCell id="pCWxr_TlRG8uWZxQKZwK-59" value="id SERIAL " style="shape=partialRectangle;overflow=hidden;connectable=0;fillColor=none;align=left;top=0;left=0;bottom=0;right=0;spacingLeft=6;fontStyle=5;" parent="pCWxr_TlRG8uWZxQKZwK-57" vertex="1">
          <mxGeometry x="30" width="163.92857142857133" height="30" as="geometry">
            <mxRectangle width="163.92857142857133" height="30" as="alternateBounds" />
          </mxGeometry>
        </mxCell>
        <mxCell id="pCWxr_TlRG8uWZxQKZwK-60" value="" style="shape=tableRow;horizontal=0;startSize=0;swimlaneHead=0;swimlaneBody=0;fillColor=none;collapsible=0;dropTarget=0;points=[[0,0.5],[1,0.5]];portConstraint=eastwest;top=0;left=0;right=0;bottom=0;" parent="pCWxr_TlRG8uWZxQKZwK-56" vertex="1">
          <mxGeometry y="60" width="193.92857142857133" height="30" as="geometry" />
        </mxCell>
        <mxCell id="pCWxr_TlRG8uWZxQKZwK-61" value="" style="shape=partialRectangle;overflow=hidden;connectable=0;fillColor=none;top=0;left=0;bottom=0;right=0;" parent="pCWxr_TlRG8uWZxQKZwK-60" vertex="1">
          <mxGeometry width="30" height="30" as="geometry">
            <mxRectangle width="30" height="30" as="alternateBounds" />
          </mxGeometry>
        </mxCell>
        <mxCell id="pCWxr_TlRG8uWZxQKZwK-62" value="name VARCHAR(64)" style="shape=partialRectangle;overflow=hidden;connectable=0;fillColor=none;align=left;top=0;left=0;bottom=0;right=0;spacingLeft=6;" parent="pCWxr_TlRG8uWZxQKZwK-60" vertex="1">
          <mxGeometry x="30" width="163.92857142857133" height="30" as="geometry">
            <mxRectangle width="163.92857142857133" height="30" as="alternateBounds" />
          </mxGeometry>
        </mxCell>
        <mxCell id="pCWxr_TlRG8uWZxQKZwK-63" value="" style="shape=tableRow;horizontal=0;startSize=0;swimlaneHead=0;swimlaneBody=0;fillColor=none;collapsible=0;dropTarget=0;points=[[0,0.5],[1,0.5]];portConstraint=eastwest;top=0;left=0;right=0;bottom=0;" parent="pCWxr_TlRG8uWZxQKZwK-56" vertex="1">
          <mxGeometry y="90" width="193.92857142857133" height="30" as="geometry" />
        </mxCell>
        <mxCell id="pCWxr_TlRG8uWZxQKZwK-64" value="" style="shape=partialRectangle;overflow=hidden;connectable=0;fillColor=none;top=0;left=0;bottom=0;right=0;" parent="pCWxr_TlRG8uWZxQKZwK-63" vertex="1">
          <mxGeometry width="30" height="30" as="geometry">
            <mxRectangle width="30" height="30" as="alternateBounds" />
          </mxGeometry>
        </mxCell>
        <mxCell id="pCWxr_TlRG8uWZxQKZwK-65" value="creation_date TIMESTAMP" style="shape=partialRectangle;overflow=hidden;connectable=0;fillColor=none;align=left;top=0;left=0;bottom=0;right=0;spacingLeft=6;" parent="pCWxr_TlRG8uWZxQKZwK-63" vertex="1">
          <mxGeometry x="30" width="163.92857142857133" height="30" as="geometry">
            <mxRectangle width="163.92857142857133" height="30" as="alternateBounds" />
          </mxGeometry>
        </mxCell>
        <mxCell id="pCWxr_TlRG8uWZxQKZwK-66" style="edgeStyle=orthogonalEdgeStyle;rounded=0;orthogonalLoop=1;jettySize=auto;html=1;exitX=0.5;exitY=1;exitDx=0;exitDy=0;entryX=0;entryY=0.5;entryDx=0;entryDy=0;startArrow=ERmandOne;startFill=0;endArrow=ERmandOne;endFill=0;startSize=16;endSize=16;" parent="1" source="pCWxr_TlRG8uWZxQKZwK-67" target="pCWxr_TlRG8uWZxQKZwK-37" edge="1">
          <mxGeometry relative="1" as="geometry" />
        </mxCell>
        <mxCell id="pCWxr_TlRG8uWZxQKZwK-67" value="ship_passport" style="shape=table;startSize=30;container=1;collapsible=1;childLayout=tableLayout;fixedRows=1;rowLines=0;fontStyle=1;align=center;resizeLast=1;" parent="1" vertex="1">
          <mxGeometry x="-1942" y="273" width="134.58333333333348" height="130" as="geometry" />
        </mxCell>
        <mxCell id="pCWxr_TlRG8uWZxQKZwK-68" value="" style="shape=tableRow;horizontal=0;startSize=0;swimlaneHead=0;swimlaneBody=0;fillColor=none;collapsible=0;dropTarget=0;points=[[0,0.5],[1,0.5]];portConstraint=eastwest;top=0;left=0;right=0;bottom=1;" parent="pCWxr_TlRG8uWZxQKZwK-67" vertex="1">
          <mxGeometry y="30" width="134.58333333333348" height="30" as="geometry" />
        </mxCell>
        <mxCell id="pCWxr_TlRG8uWZxQKZwK-69" value="PK" style="shape=partialRectangle;overflow=hidden;connectable=0;fillColor=none;top=0;left=0;bottom=0;right=0;fontStyle=1;" parent="pCWxr_TlRG8uWZxQKZwK-68" vertex="1">
          <mxGeometry width="30" height="30" as="geometry">
            <mxRectangle width="30" height="30" as="alternateBounds" />
          </mxGeometry>
        </mxCell>
        <mxCell id="pCWxr_TlRG8uWZxQKZwK-70" value="id SERIAL " style="shape=partialRectangle;overflow=hidden;connectable=0;fillColor=none;align=left;top=0;left=0;bottom=0;right=0;spacingLeft=6;fontStyle=5;" parent="pCWxr_TlRG8uWZxQKZwK-68" vertex="1">
          <mxGeometry x="30" width="104.58333333333348" height="30" as="geometry">
            <mxRectangle width="104.58333333333348" height="30" as="alternateBounds" />
          </mxGeometry>
        </mxCell>
        <mxCell id="pCWxr_TlRG8uWZxQKZwK-74" value="" style="shape=tableRow;horizontal=0;startSize=0;swimlaneHead=0;swimlaneBody=0;fillColor=none;collapsible=0;dropTarget=0;points=[[0,0.5],[1,0.5]];portConstraint=eastwest;top=0;left=0;right=0;bottom=0;" parent="pCWxr_TlRG8uWZxQKZwK-67" vertex="1">
          <mxGeometry y="60" width="134.58333333333348" height="30" as="geometry" />
        </mxCell>
        <mxCell id="pCWxr_TlRG8uWZxQKZwK-75" value="FK" style="shape=partialRectangle;overflow=hidden;connectable=0;fillColor=none;top=0;left=0;bottom=0;right=0;" parent="pCWxr_TlRG8uWZxQKZwK-74" vertex="1">
          <mxGeometry width="30" height="30" as="geometry">
            <mxRectangle width="30" height="30" as="alternateBounds" />
          </mxGeometry>
        </mxCell>
        <mxCell id="pCWxr_TlRG8uWZxQKZwK-76" value="licence_id INT" style="shape=partialRectangle;overflow=hidden;connectable=0;fillColor=none;align=left;top=0;left=0;bottom=0;right=0;spacingLeft=6;" parent="pCWxr_TlRG8uWZxQKZwK-74" vertex="1">
          <mxGeometry x="30" width="104.58333333333348" height="30" as="geometry">
            <mxRectangle width="104.58333333333348" height="30" as="alternateBounds" />
          </mxGeometry>
        </mxCell>
        <mxCell id="pCWxr_TlRG8uWZxQKZwK-77" value="" style="shape=tableRow;horizontal=0;startSize=0;swimlaneHead=0;swimlaneBody=0;fillColor=none;collapsible=0;dropTarget=0;points=[[0,0.5],[1,0.5]];portConstraint=eastwest;top=0;left=0;right=0;bottom=0;" parent="pCWxr_TlRG8uWZxQKZwK-67" vertex="1">
          <mxGeometry y="90" width="134.58333333333348" height="30" as="geometry" />
        </mxCell>
        <mxCell id="pCWxr_TlRG8uWZxQKZwK-78" value="FK" style="shape=partialRectangle;overflow=hidden;connectable=0;fillColor=none;top=0;left=0;bottom=0;right=0;" parent="pCWxr_TlRG8uWZxQKZwK-77" vertex="1">
          <mxGeometry width="30" height="30" as="geometry">
            <mxRectangle width="30" height="30" as="alternateBounds" />
          </mxGeometry>
        </mxCell>
        <mxCell id="pCWxr_TlRG8uWZxQKZwK-79" value="ship_id INT" style="shape=partialRectangle;overflow=hidden;connectable=0;fillColor=none;align=left;top=0;left=0;bottom=0;right=0;spacingLeft=6;" parent="pCWxr_TlRG8uWZxQKZwK-77" vertex="1">
          <mxGeometry x="30" width="104.58333333333348" height="30" as="geometry">
            <mxRectangle width="104.58333333333348" height="30" as="alternateBounds" />
          </mxGeometry>
        </mxCell>
        <mxCell id="pCWxr_TlRG8uWZxQKZwK-80" value="interior_element" style="shape=table;startSize=30;container=1;collapsible=1;childLayout=tableLayout;fixedRows=1;rowLines=0;fontStyle=1;align=center;resizeLast=1;" parent="1" vertex="1">
          <mxGeometry x="-1205.0000000000002" y="841.5" width="187.28571428571445" height="100" as="geometry" />
        </mxCell>
        <mxCell id="pCWxr_TlRG8uWZxQKZwK-81" value="" style="shape=tableRow;horizontal=0;startSize=0;swimlaneHead=0;swimlaneBody=0;fillColor=none;collapsible=0;dropTarget=0;points=[[0,0.5],[1,0.5]];portConstraint=eastwest;top=0;left=0;right=0;bottom=1;" parent="pCWxr_TlRG8uWZxQKZwK-80" vertex="1">
          <mxGeometry y="30" width="187.28571428571445" height="30" as="geometry" />
        </mxCell>
        <mxCell id="pCWxr_TlRG8uWZxQKZwK-82" value="PK" style="shape=partialRectangle;overflow=hidden;connectable=0;fillColor=none;top=0;left=0;bottom=0;right=0;fontStyle=1;" parent="pCWxr_TlRG8uWZxQKZwK-81" vertex="1">
          <mxGeometry width="30" height="30" as="geometry">
            <mxRectangle width="30" height="30" as="alternateBounds" />
          </mxGeometry>
        </mxCell>
        <mxCell id="pCWxr_TlRG8uWZxQKZwK-83" value="id SERIAL " style="shape=partialRectangle;overflow=hidden;connectable=0;fillColor=none;align=left;top=0;left=0;bottom=0;right=0;spacingLeft=6;fontStyle=5;" parent="pCWxr_TlRG8uWZxQKZwK-81" vertex="1">
          <mxGeometry x="30" width="157.28571428571445" height="30" as="geometry">
            <mxRectangle width="157.28571428571445" height="30" as="alternateBounds" />
          </mxGeometry>
        </mxCell>
        <mxCell id="pCWxr_TlRG8uWZxQKZwK-87" value="" style="shape=tableRow;horizontal=0;startSize=0;swimlaneHead=0;swimlaneBody=0;fillColor=none;collapsible=0;dropTarget=0;points=[[0,0.5],[1,0.5]];portConstraint=eastwest;top=0;left=0;right=0;bottom=0;" parent="pCWxr_TlRG8uWZxQKZwK-80" vertex="1">
          <mxGeometry y="60" width="187.28571428571445" height="30" as="geometry" />
        </mxCell>
        <mxCell id="pCWxr_TlRG8uWZxQKZwK-88" value="" style="shape=partialRectangle;overflow=hidden;connectable=0;fillColor=none;top=0;left=0;bottom=0;right=0;" parent="pCWxr_TlRG8uWZxQKZwK-87" vertex="1">
          <mxGeometry width="30" height="30" as="geometry">
            <mxRectangle width="30" height="30" as="alternateBounds" />
          </mxGeometry>
        </mxCell>
        <mxCell id="pCWxr_TlRG8uWZxQKZwK-89" value="type VARCHAR(32)" style="shape=partialRectangle;overflow=hidden;connectable=0;fillColor=none;align=left;top=0;left=0;bottom=0;right=0;spacingLeft=6;" parent="pCWxr_TlRG8uWZxQKZwK-87" vertex="1">
          <mxGeometry x="30" width="157.28571428571445" height="30" as="geometry">
            <mxRectangle width="157.28571428571445" height="30" as="alternateBounds" />
          </mxGeometry>
        </mxCell>
        <mxCell id="pCWxr_TlRG8uWZxQKZwK-90" style="edgeStyle=orthogonalEdgeStyle;rounded=0;orthogonalLoop=1;jettySize=auto;html=1;exitX=0;exitY=0.5;exitDx=0;exitDy=0;entryX=0;entryY=0.5;entryDx=0;entryDy=0;startArrow=ERzeroToMany;startFill=0;endArrow=ERmandOne;endFill=0;startSize=16;endSize=16;" parent="1" source="pCWxr_TlRG8uWZxQKZwK-93" target="pCWxr_TlRG8uWZxQKZwK-57" edge="1">
          <mxGeometry relative="1" as="geometry" />
        </mxCell>
        <mxCell id="pCWxr_TlRG8uWZxQKZwK-91" style="edgeStyle=orthogonalEdgeStyle;rounded=0;orthogonalLoop=1;jettySize=auto;html=1;exitX=0;exitY=0.5;exitDx=0;exitDy=0;entryX=0;entryY=0.5;entryDx=0;entryDy=0;startArrow=ERzeroToMany;startFill=0;endArrow=ERmandOne;endFill=0;startSize=16;endSize=16;" parent="1" source="pCWxr_TlRG8uWZxQKZwK-96" target="pCWxr_TlRG8uWZxQKZwK-81" edge="1">
          <mxGeometry relative="1" as="geometry" />
        </mxCell>
        <mxCell id="pCWxr_TlRG8uWZxQKZwK-92" value="ship_interior_registry" style="shape=table;startSize=30;container=1;collapsible=1;childLayout=tableLayout;fixedRows=1;rowLines=0;fontStyle=1;align=center;resizeLast=1;" parent="1" vertex="1">
          <mxGeometry x="-1175.14" y="681" width="157.42857142857133" height="130" as="geometry" />
        </mxCell>
        <mxCell id="pCWxr_TlRG8uWZxQKZwK-93" value="" style="shape=tableRow;horizontal=0;startSize=0;swimlaneHead=0;swimlaneBody=0;fillColor=none;collapsible=0;dropTarget=0;points=[[0,0.5],[1,0.5]];portConstraint=eastwest;top=0;left=0;right=0;bottom=0;" parent="pCWxr_TlRG8uWZxQKZwK-92" vertex="1">
          <mxGeometry y="30" width="157.42857142857133" height="30" as="geometry" />
        </mxCell>
        <mxCell id="pCWxr_TlRG8uWZxQKZwK-94" value="FK" style="shape=partialRectangle;overflow=hidden;connectable=0;fillColor=none;top=0;left=0;bottom=0;right=0;" parent="pCWxr_TlRG8uWZxQKZwK-93" vertex="1">
          <mxGeometry width="30" height="30" as="geometry">
            <mxRectangle width="30" height="30" as="alternateBounds" />
          </mxGeometry>
        </mxCell>
        <mxCell id="pCWxr_TlRG8uWZxQKZwK-95" value="ship_id INT" style="shape=partialRectangle;overflow=hidden;connectable=0;fillColor=none;align=left;top=0;left=0;bottom=0;right=0;spacingLeft=6;" parent="pCWxr_TlRG8uWZxQKZwK-93" vertex="1">
          <mxGeometry x="30" width="127.42857142857133" height="30" as="geometry">
            <mxRectangle width="127.42857142857133" height="30" as="alternateBounds" />
          </mxGeometry>
        </mxCell>
        <mxCell id="pCWxr_TlRG8uWZxQKZwK-96" value="" style="shape=tableRow;horizontal=0;startSize=0;swimlaneHead=0;swimlaneBody=0;fillColor=none;collapsible=0;dropTarget=0;points=[[0,0.5],[1,0.5]];portConstraint=eastwest;top=0;left=0;right=0;bottom=0;" parent="pCWxr_TlRG8uWZxQKZwK-92" vertex="1">
          <mxGeometry y="60" width="157.42857142857133" height="30" as="geometry" />
        </mxCell>
        <mxCell id="pCWxr_TlRG8uWZxQKZwK-97" value="FK" style="shape=partialRectangle;overflow=hidden;connectable=0;fillColor=none;top=0;left=0;bottom=0;right=0;" parent="pCWxr_TlRG8uWZxQKZwK-96" vertex="1">
          <mxGeometry width="30" height="30" as="geometry">
            <mxRectangle width="30" height="30" as="alternateBounds" />
          </mxGeometry>
        </mxCell>
        <mxCell id="pCWxr_TlRG8uWZxQKZwK-98" value="element_id INT" style="shape=partialRectangle;overflow=hidden;connectable=0;fillColor=none;align=left;top=0;left=0;bottom=0;right=0;spacingLeft=6;" parent="pCWxr_TlRG8uWZxQKZwK-96" vertex="1">
          <mxGeometry x="30" width="127.42857142857133" height="30" as="geometry">
            <mxRectangle width="127.42857142857133" height="30" as="alternateBounds" />
          </mxGeometry>
        </mxCell>
        <mxCell id="SImTikYxkMgGAkbHIZDV-2" value="" style="shape=tableRow;horizontal=0;startSize=0;swimlaneHead=0;swimlaneBody=0;fillColor=none;collapsible=0;dropTarget=0;points=[[0,0.5],[1,0.5]];portConstraint=eastwest;top=0;left=0;right=0;bottom=0;" parent="pCWxr_TlRG8uWZxQKZwK-92" vertex="1">
          <mxGeometry y="90" width="157.42857142857133" height="30" as="geometry" />
        </mxCell>
        <mxCell id="SImTikYxkMgGAkbHIZDV-3" value="" style="shape=partialRectangle;overflow=hidden;connectable=0;fillColor=none;top=0;left=0;bottom=0;right=0;" parent="SImTikYxkMgGAkbHIZDV-2" vertex="1">
          <mxGeometry width="30" height="30" as="geometry">
            <mxRectangle width="30" height="30" as="alternateBounds" />
          </mxGeometry>
        </mxCell>
        <mxCell id="SImTikYxkMgGAkbHIZDV-4" value="name VARCHAR(32)" style="shape=partialRectangle;overflow=hidden;connectable=0;fillColor=none;align=left;top=0;left=0;bottom=0;right=0;spacingLeft=6;" parent="SImTikYxkMgGAkbHIZDV-2" vertex="1">
          <mxGeometry x="30" width="127.42857142857133" height="30" as="geometry">
            <mxRectangle width="127.42857142857133" height="30" as="alternateBounds" />
          </mxGeometry>
        </mxCell>
        <mxCell id="pCWxr_TlRG8uWZxQKZwK-100" style="edgeStyle=orthogonalEdgeStyle;rounded=0;orthogonalLoop=1;jettySize=auto;html=1;exitX=0;exitY=0.5;exitDx=0;exitDy=0;entryX=1;entryY=0.5;entryDx=0;entryDy=0;startArrow=ERmandOne;startFill=0;endArrow=ERmandOne;endFill=0;startSize=16;endSize=16;" parent="1" source="pCWxr_TlRG8uWZxQKZwK-30" target="pCWxr_TlRG8uWZxQKZwK-2" edge="1">
          <mxGeometry relative="1" as="geometry" />
        </mxCell>
        <mxCell id="96WHZK6G3XDEFh7gXQlD-107" value="coloured_haircut" style="shape=table;startSize=30;container=1;collapsible=1;childLayout=tableLayout;fixedRows=1;rowLines=0;fontStyle=1;align=center;resizeLast=1;" parent="1" vertex="1">
          <mxGeometry x="-2202" y="798" width="180" height="150" as="geometry" />
        </mxCell>
        <mxCell id="96WHZK6G3XDEFh7gXQlD-108" value="" style="shape=tableRow;horizontal=0;startSize=0;swimlaneHead=0;swimlaneBody=0;fillColor=none;collapsible=0;dropTarget=0;points=[[0,0.5],[1,0.5]];portConstraint=eastwest;top=0;left=0;right=0;bottom=1;" parent="96WHZK6G3XDEFh7gXQlD-107" vertex="1">
          <mxGeometry y="30" width="180" height="30" as="geometry" />
        </mxCell>
        <mxCell id="96WHZK6G3XDEFh7gXQlD-109" value="PK" style="shape=partialRectangle;connectable=0;fillColor=none;top=0;left=0;bottom=0;right=0;fontStyle=1;overflow=hidden;" parent="96WHZK6G3XDEFh7gXQlD-108" vertex="1">
          <mxGeometry width="30" height="30" as="geometry">
            <mxRectangle width="30" height="30" as="alternateBounds" />
          </mxGeometry>
        </mxCell>
        <mxCell id="96WHZK6G3XDEFh7gXQlD-110" value="id SERIAL" style="shape=partialRectangle;connectable=0;fillColor=none;top=0;left=0;bottom=0;right=0;align=left;spacingLeft=6;fontStyle=5;overflow=hidden;" parent="96WHZK6G3XDEFh7gXQlD-108" vertex="1">
          <mxGeometry x="30" width="150" height="30" as="geometry">
            <mxRectangle width="150" height="30" as="alternateBounds" />
          </mxGeometry>
        </mxCell>
        <mxCell id="96WHZK6G3XDEFh7gXQlD-111" value="" style="shape=tableRow;horizontal=0;startSize=0;swimlaneHead=0;swimlaneBody=0;fillColor=none;collapsible=0;dropTarget=0;points=[[0,0.5],[1,0.5]];portConstraint=eastwest;top=0;left=0;right=0;bottom=0;" parent="96WHZK6G3XDEFh7gXQlD-107" vertex="1">
          <mxGeometry y="60" width="180" height="30" as="geometry" />
        </mxCell>
        <mxCell id="96WHZK6G3XDEFh7gXQlD-112" value="" style="shape=partialRectangle;connectable=0;fillColor=none;top=0;left=0;bottom=0;right=0;editable=1;overflow=hidden;" parent="96WHZK6G3XDEFh7gXQlD-111" vertex="1">
          <mxGeometry width="30" height="30" as="geometry">
            <mxRectangle width="30" height="30" as="alternateBounds" />
          </mxGeometry>
        </mxCell>
        <mxCell id="96WHZK6G3XDEFh7gXQlD-113" value="color VARCHAR(32)" style="shape=partialRectangle;connectable=0;fillColor=none;top=0;left=0;bottom=0;right=0;align=left;spacingLeft=6;overflow=hidden;" parent="96WHZK6G3XDEFh7gXQlD-111" vertex="1">
          <mxGeometry x="30" width="150" height="30" as="geometry">
            <mxRectangle width="150" height="30" as="alternateBounds" />
          </mxGeometry>
        </mxCell>
        <mxCell id="96WHZK6G3XDEFh7gXQlD-114" value="" style="shape=tableRow;horizontal=0;startSize=0;swimlaneHead=0;swimlaneBody=0;fillColor=none;collapsible=0;dropTarget=0;points=[[0,0.5],[1,0.5]];portConstraint=eastwest;top=0;left=0;right=0;bottom=0;" parent="96WHZK6G3XDEFh7gXQlD-107" vertex="1">
          <mxGeometry y="90" width="180" height="30" as="geometry" />
        </mxCell>
        <mxCell id="96WHZK6G3XDEFh7gXQlD-115" value="" style="shape=partialRectangle;connectable=0;fillColor=none;top=0;left=0;bottom=0;right=0;editable=1;overflow=hidden;" parent="96WHZK6G3XDEFh7gXQlD-114" vertex="1">
          <mxGeometry width="30" height="30" as="geometry">
            <mxRectangle width="30" height="30" as="alternateBounds" />
          </mxGeometry>
        </mxCell>
        <mxCell id="96WHZK6G3XDEFh7gXQlD-116" value="date_from TIMESTAMP" style="shape=partialRectangle;connectable=0;fillColor=none;top=0;left=0;bottom=0;right=0;align=left;spacingLeft=6;overflow=hidden;" parent="96WHZK6G3XDEFh7gXQlD-114" vertex="1">
          <mxGeometry x="30" width="150" height="30" as="geometry">
            <mxRectangle width="150" height="30" as="alternateBounds" />
          </mxGeometry>
        </mxCell>
        <mxCell id="96WHZK6G3XDEFh7gXQlD-117" value="" style="shape=tableRow;horizontal=0;startSize=0;swimlaneHead=0;swimlaneBody=0;fillColor=none;collapsible=0;dropTarget=0;points=[[0,0.5],[1,0.5]];portConstraint=eastwest;top=0;left=0;right=0;bottom=0;" parent="96WHZK6G3XDEFh7gXQlD-107" vertex="1">
          <mxGeometry y="120" width="180" height="30" as="geometry" />
        </mxCell>
        <mxCell id="96WHZK6G3XDEFh7gXQlD-118" value="" style="shape=partialRectangle;connectable=0;fillColor=none;top=0;left=0;bottom=0;right=0;editable=1;overflow=hidden;" parent="96WHZK6G3XDEFh7gXQlD-117" vertex="1">
          <mxGeometry width="30" height="30" as="geometry">
            <mxRectangle width="30" height="30" as="alternateBounds" />
          </mxGeometry>
        </mxCell>
        <mxCell id="96WHZK6G3XDEFh7gXQlD-119" value="name VARCHAR(32)" style="shape=partialRectangle;connectable=0;fillColor=none;top=0;left=0;bottom=0;right=0;align=left;spacingLeft=6;overflow=hidden;" parent="96WHZK6G3XDEFh7gXQlD-117" vertex="1">
          <mxGeometry x="30" width="150" height="30" as="geometry">
            <mxRectangle width="150" height="30" as="alternateBounds" />
          </mxGeometry>
        </mxCell>
        <mxCell id="96WHZK6G3XDEFh7gXQlD-120" style="edgeStyle=orthogonalEdgeStyle;rounded=0;orthogonalLoop=1;jettySize=auto;html=1;exitX=0;exitY=0.5;exitDx=0;exitDy=0;entryX=1;entryY=0.5;entryDx=0;entryDy=0;startArrow=ERmandOne;startFill=0;endArrow=ERmandOne;endFill=0;endSize=16;startSize=16;" parent="1" source="96WHZK6G3XDEFh7gXQlD-104" target="96WHZK6G3XDEFh7gXQlD-108" edge="1">
          <mxGeometry relative="1" as="geometry" />
        </mxCell>
      </root>
    </mxGraphModel>
  </diagram>
</mxfile>
